<svg width="624" height="608" viewBox="0 0 624 608" fill="none" xmlns="http://www.w3.org/2000/svg">
<g filter="url(#filter0_d_43_385)">
<rect x="288.405" y="174.018" width="11.0925" height="11.0925" rx="5.54625" fill="url(#paint0_linear_43_385)"/>
</g>
<g filter="url(#filter1_d_43_385)">
<rect x="588.642" y="316.74" width="11.0925" height="11.0925" rx="5.54625" fill="url(#paint1_linear_43_385)"/>
</g>
<g filter="url(#filter2_d_43_385)">
<rect x="470.322" y="429.145" width="11.0925" height="11.0925" rx="5.54625" fill="url(#paint2_linear_43_385)"/>
</g>
<g filter="url(#filter3_d_43_385)">
<rect x="259.565" y="420.27" width="22.9245" height="22.9245" rx="11.4622" fill="url(#paint3_linear_43_385)"/>
</g>
<g filter="url(#filter4_d_43_385)">
<rect x="463.667" y="386.254" width="13.311" height="13.311" rx="6.6555" fill="url(#paint4_linear_43_385)"/>
</g>
<g filter="url(#filter5_d_43_385)">
<rect x="107.228" y="385.514" width="13.311" height="13.311" rx="6.6555" fill="url(#paint5_linear_43_385)"/>
</g>
<g filter="url(#filter6_d_43_385)">
<rect x="393.414" y="446.153" width="6.6555" height="6.6555" rx="3.32775" fill="url(#paint6_linear_43_385)"/>
</g>
<path d="M333.119 67.4558C333.119 67.4558 267.859 69.5673 251.341 99.6539C235.254 128.955 265.825 184.013 265.825 184.013C265.825 184.013 310.481 257.502 298.17 304.729C277.155 385.355 143.018 302.057 95.1215 370.234C41.7808 446.159 124.203 606.05 124.203 606.05" stroke="#FFC819" stroke-width="0.863756"/>
<path d="M546.828 565.688C546.828 565.688 591.482 518.049 581.887 485.095C572.543 453.001 511.994 435.685 511.994 435.685C511.994 435.685 428.454 415.298 403.763 373.198C361.613 301.327 515.362 265.379 501.022 183.302C485.052 91.8974 313.711 37.1191 313.711 37.1191" stroke="#FCC822" stroke-width="1.29563"/>
<circle cx="406.725" cy="276.068" r="4.437" fill="url(#paint7_linear_43_385)"/>
<circle cx="428.91" cy="303.935" r="4.437" fill="url(#paint8_linear_43_385)"/>
<circle cx="442.961" cy="303.936" r="2.2185" fill="url(#paint9_linear_43_385)"/>
<circle cx="438.845" cy="313.87" r="2.2185" transform="rotate(45 438.845 313.87)" fill="url(#paint10_linear_43_385)"/>
<circle cx="428.672" cy="317.985" r="2.2185" transform="rotate(90 428.672 317.985)" fill="url(#paint11_linear_43_385)"/>
<circle cx="418.736" cy="313.871" r="2.2185" transform="rotate(135 418.736 313.871)" fill="url(#paint12_linear_43_385)"/>
<circle cx="414.859" cy="303.936" r="2.2185" fill="url(#paint13_linear_43_385)"/>
<circle cx="418.975" cy="293.999" r="2.2185" transform="rotate(45 418.975 293.999)" fill="url(#paint14_linear_43_385)"/>
<circle cx="428.672" cy="289.885" r="2.2185" transform="rotate(90 428.672 289.885)" fill="url(#paint15_linear_43_385)"/>
<circle cx="438.607" cy="294" r="2.2185" transform="rotate(135 438.607 294)" fill="url(#paint16_linear_43_385)"/>
<path d="M381.011 419.867L384.878 420.56C388.988 421.292 391.722 425.218 390.988 429.326L390.279 433.294C389.545 437.402 385.619 440.137 381.512 439.403L377.644 438.711C373.536 437.977 370.8 434.051 371.534 429.943L372.243 425.977C372.977 421.868 376.903 419.133 381.011 419.867ZM406.742 313.114C416.791 314.91 423.751 319.873 427.622 328.001C430.703 334.421 431.56 341.465 430.19 349.134C427.897 361.961 419.908 373.122 406.222 382.615C401.45 385.925 398.454 390.235 397.231 395.543C396.78 397.304 396.358 399.275 395.969 401.458C395.234 405.566 391.309 408.301 387.201 407.566L383.333 406.875C379.225 406.141 376.49 402.216 377.223 398.108V398.107C379.316 386.403 383.745 378.225 390.514 373.565C397.828 368.527 403.22 362.976 406.693 356.909C408.689 353.377 410.06 349.528 410.805 345.362C411.572 341.064 411.216 337.522 409.736 334.731C408.126 331.511 405.26 329.804 401.133 329.612C397.281 329.402 394.102 331.529 391.6 335.994C391.473 336.21 391.35 336.431 391.229 336.657C389.455 339.956 385.514 341.442 381.997 340.154L378.549 338.892C374.281 337.33 372.334 332.368 374.42 328.33C376.491 324.316 379.224 320.912 382.616 318.115C386.294 315.089 390.987 313.265 396.693 312.648C399.688 312.298 403.038 312.451 406.742 313.114Z" fill="#AEDBED"/>
<path d="M234.137 435.697L237.349 435.85C240.76 436.012 243.395 438.91 243.231 442.321L243.075 445.616C242.912 449.028 240.015 451.661 236.604 451.5L233.392 451.347C229.98 451.183 227.346 448.287 227.509 444.876L227.665 441.58C227.828 438.168 230.725 435.535 234.137 435.697ZM243.758 346.34C252.103 346.737 258.275 350.031 262.273 356.22C265.452 361.104 266.89 366.731 266.587 373.1C266.081 383.753 260.774 393.654 250.668 402.803C247.144 405.993 245.167 409.806 244.735 414.244C244.554 415.72 244.42 417.365 244.334 419.177C244.171 422.589 241.275 425.222 237.862 425.061L234.65 424.908C231.238 424.744 228.605 421.848 228.766 418.437C229.229 408.717 231.962 401.611 236.964 397.116C242.368 392.255 246.159 387.18 248.338 381.89C249.585 378.811 250.291 375.544 250.456 372.085C250.626 368.516 249.963 365.677 248.467 363.57C246.821 361.126 244.314 360.043 240.945 360.322C237.797 360.558 235.441 362.62 233.881 366.508C233.801 366.697 233.724 366.889 233.649 367.085C232.559 369.95 229.517 371.571 226.528 370.897L223.595 370.237C219.965 369.419 217.863 365.598 219.129 362.1C220.387 358.623 222.244 355.573 224.703 352.944C227.369 350.101 230.986 348.126 235.552 347.023C237.946 346.421 240.682 346.193 243.758 346.34" fill="#AEDBED"/>
<path d="M290.793 307.121L293.242 306.691C295.844 306.234 298.322 307.973 298.778 310.574L299.219 313.086C299.675 315.687 297.938 318.166 295.336 318.622L292.886 319.052C290.286 319.509 287.806 317.77 287.35 315.168L286.909 312.658C286.453 310.056 288.192 307.577 290.793 307.121ZM282.885 238.079C289.248 236.962 294.463 238.399 298.53 242.39C301.757 245.535 303.797 249.536 304.65 254.391C306.075 262.514 303.751 270.883 297.681 279.501C295.564 282.505 294.72 285.717 295.147 289.137C295.261 290.283 295.44 291.546 295.681 292.927C296.139 295.529 294.4 298.007 291.799 298.463L289.35 298.893C286.748 299.35 284.27 297.611 283.812 295.01C282.512 287.6 283.368 281.776 286.378 277.536C289.629 272.952 291.629 268.48 292.374 264.119C292.792 261.586 292.77 259 292.307 256.363C291.83 253.641 290.848 251.613 289.362 250.277C287.706 248.712 285.631 248.321 283.136 249.104C280.802 249.816 279.374 251.77 278.858 254.969C278.829 255.125 278.804 255.283 278.781 255.444C278.444 257.79 276.424 259.53 274.054 259.529L271.731 259.528C268.854 259.526 266.619 257.001 266.981 254.147C267.34 251.312 268.223 248.695 269.632 246.296C271.161 243.697 273.554 241.594 276.811 239.986C278.515 239.127 280.539 238.49 282.885 238.079" fill="#AEDBED"/>
<path d="M111.577 380.91L113.203 381.33C114.929 381.777 115.966 383.539 115.519 385.266L115.087 386.932C114.64 388.66 112.878 389.696 111.152 389.249L109.526 388.829C107.799 388.381 106.763 386.62 107.21 384.894L107.641 383.226C108.088 381.5 109.85 380.462 111.577 380.91ZM126.028 336.264C130.251 337.359 133.054 339.701 134.439 343.291C135.542 346.126 135.677 349.156 134.842 352.38C133.446 357.769 129.678 362.264 123.536 365.862C121.395 367.115 119.977 368.853 119.283 371.076C119.033 371.812 118.789 372.636 118.551 373.554C118.104 375.281 116.342 376.318 114.616 375.87L112.991 375.45C111.265 375.003 110.227 373.241 110.674 371.515C111.948 366.596 114.102 363.256 117.139 361.493C120.419 359.583 122.899 357.395 124.577 354.924C125.542 353.484 126.253 351.889 126.705 350.137C127.173 348.333 127.137 346.811 126.597 345.573C126.018 344.149 124.851 343.327 123.099 343.112C121.465 342.896 120.042 343.697 118.829 345.519C118.768 345.608 118.708 345.698 118.649 345.79C117.785 347.137 116.058 347.64 114.601 346.978L113.174 346.328C111.406 345.521 110.738 343.345 111.76 341.692C112.773 340.05 114.048 338.689 115.585 337.607C117.251 336.438 119.31 335.815 121.762 335.738C123.05 335.686 124.472 335.862 126.028 336.264Z" fill="#AEDBED"/>
<path d="M175.448 388.034L180.467 386.745C185.797 385.376 191.227 388.588 192.597 393.918L193.918 399.065C195.287 404.395 192.075 409.826 186.745 411.194L181.726 412.483C176.396 413.851 170.966 410.64 169.597 405.31L168.276 400.162C166.906 394.832 170.118 389.402 175.448 388.034ZM147.863 245.883C160.901 242.535 171.968 244.678 181.061 252.309C188.273 258.323 193.157 266.304 195.713 276.255C199.987 292.899 196.513 310.66 185.294 329.543C181.382 336.126 180.147 342.935 181.588 349.972C182.009 352.332 182.584 354.928 183.312 357.76C184.68 363.09 181.469 368.52 176.139 369.888L171.119 371.177C165.79 372.546 160.359 369.335 158.991 364.005C155.091 348.819 155.927 336.582 161.496 327.286C167.51 317.238 170.939 307.626 171.784 298.446C172.244 293.116 171.78 287.748 170.392 282.344C168.961 276.769 166.594 272.713 163.291 270.177C159.598 267.196 155.222 266.718 150.167 268.747C145.432 270.603 142.783 274.895 142.226 281.623C142.194 281.95 142.166 282.284 142.144 282.621C141.823 287.549 137.909 291.489 132.985 291.87L128.157 292.243C122.182 292.707 117.131 287.821 117.42 281.833C117.708 275.886 119.121 270.305 121.659 265.094C124.414 259.449 129.046 254.693 135.553 250.827C138.955 248.766 143.057 247.117 147.863 245.883" fill="#AEDBED"/>
<path d="M503.912 391.348L507.46 390.437C511.226 389.47 515.063 391.74 516.03 395.506L516.964 399.144C517.932 402.91 515.663 406.747 511.896 407.714L508.349 408.625C504.583 409.593 500.745 407.323 499.778 403.557L498.844 399.919C497.877 396.153 500.145 392.315 503.912 391.348ZM484.419 290.893C493.633 288.528 501.454 290.042 507.879 295.435C512.976 299.684 516.428 305.325 518.234 312.356C521.253 324.117 518.799 336.67 510.871 350.013C508.106 354.665 507.233 359.477 508.252 364.451C508.549 366.118 508.956 367.953 509.469 369.953C510.437 373.719 508.167 377.557 504.401 378.524L500.854 379.435C497.088 380.402 493.25 378.133 492.283 374.367C489.527 363.636 490.118 354.988 494.053 348.419C498.303 341.319 500.726 334.526 501.324 328.038C501.648 324.272 501.321 320.479 500.34 316.658C499.329 312.72 497.655 309.853 495.322 308.061C492.711 305.955 489.62 305.616 486.048 307.05C482.701 308.362 480.829 311.395 480.436 316.148C480.411 316.381 480.393 316.616 480.377 316.854C480.151 320.338 477.385 323.122 473.904 323.391L470.493 323.656C466.27 323.983 462.701 320.53 462.906 316.299C463.109 312.095 464.107 308.152 465.901 304.468C467.849 300.48 471.122 297.119 475.721 294.387C478.123 292.93 481.023 291.765 484.419 290.893" fill="#AEDBED"/>
<path d="M487.691 224.688L489.651 224.185C491.733 223.651 493.854 224.904 494.389 226.986L494.905 228.997C495.44 231.079 494.185 233.2 492.104 233.733L490.143 234.238C488.06 234.772 485.939 233.518 485.406 231.436L484.889 229.425C484.354 227.344 485.608 225.223 487.691 224.688ZM476.916 169.163C482.008 167.854 486.332 168.692 489.882 171.673C492.7 174.021 494.608 177.139 495.606 181.026C497.275 187.526 495.919 194.465 491.536 201.84C490.009 204.413 489.526 207.071 490.088 209.82C490.253 210.743 490.478 211.756 490.762 212.862C491.297 214.944 490.042 217.065 487.96 217.6L486 218.103C483.918 218.637 481.796 217.383 481.262 215.302C479.739 209.37 480.065 204.59 482.241 200.959C484.59 197.034 485.93 193.28 486.259 189.693C486.439 187.612 486.258 185.515 485.715 183.404C485.157 181.226 484.232 179.643 482.941 178.651C481.499 177.488 479.79 177.3 477.815 178.093C475.965 178.818 474.931 180.495 474.714 183.122C474.701 183.251 474.689 183.381 474.681 183.512C474.556 185.438 473.027 186.977 471.104 187.125L469.218 187.272C466.884 187.452 464.912 185.544 465.025 183.205C465.137 180.882 465.689 178.702 466.681 176.667C467.756 174.461 469.566 172.603 472.107 171.094C473.436 170.289 475.038 169.644 476.916 169.163" fill="#AEDBED"/>
<path d="M224.653 259.311C224.653 259.311 235.997 204.006 210.149 206.731L185.439 258.18C185.439 258.18 202.002 264.97 224.653 259.311Z" fill="#361710"/>
<path d="M167.061 259.311C167.061 259.311 160.773 214.463 180.282 203.082L206.276 258.18C206.276 258.18 189.713 264.97 167.061 259.311Z" fill="#361710"/>
<path d="M127.016 246.909H130.024C133.219 246.909 135.809 249.499 135.809 252.693V255.778C135.809 258.974 133.219 261.563 130.024 261.563H127.016C123.821 261.563 121.232 258.974 121.232 255.778V252.693C121.232 249.499 123.821 246.909 127.016 246.909ZM132.03 162.996C139.845 162.996 145.757 165.798 149.769 171.402C152.956 175.824 154.55 181.017 154.55 186.982C154.55 196.958 150.032 206.444 140.999 215.442C137.848 218.578 136.171 222.229 135.965 226.394C135.861 227.782 135.809 229.323 135.809 231.021C135.809 234.217 133.219 236.806 130.024 236.806H127.016C123.821 236.806 121.232 234.217 121.232 231.021C121.232 221.92 123.469 215.16 127.942 210.737C132.774 205.955 136.09 201.045 137.891 196.005C138.919 193.075 139.433 189.99 139.433 186.75C139.433 183.408 138.688 180.787 137.197 178.884C135.551 176.674 133.16 175.773 130.024 176.184C127.093 176.544 124.985 178.576 123.7 182.277C123.634 182.457 123.57 182.64 123.509 182.827C122.618 185.553 119.848 187.202 117.024 186.707L114.256 186.219C110.828 185.616 108.694 182.14 109.721 178.815C110.742 175.512 112.343 172.579 114.522 170.013C116.887 167.238 120.177 165.232 124.395 163.999C126.605 163.331 129.149 162.996 132.03 162.996" fill="#FCC822"/>
<path d="M198.985 474.11C198.985 474.11 197.553 479.642 194.978 478.808C190.164 477.253 189.883 474.11 189.883 474.11C189.883 474.11 186.847 483.264 187.425 487.623C188.004 491.982 187.425 501.783 187.425 501.783H191.819C191.819 501.783 195.928 502.283 197.632 504.76C199.336 507.237 208.67 506.502 211.629 504.913C215.419 502.878 205.471 492.522 201.952 486.751C198.432 480.98 198.985 474.11 198.985 474.11Z" fill="#1C0906"/>
<path d="M190.763 392.65C193.798 385.151 204.629 385.235 207.299 392.87C207.781 394.246 208.13 395.687 208.358 397.145C209.481 404.305 208.353 415.78 205.397 430.436C201.407 450.21 199.252 489.658 192.324 490.238C185.396 490.818 189.468 457.648 189.323 438.034C189.179 418.418 186.088 404.196 190.475 393.364L190.763 392.65Z" fill="#CF9166"/>
<path d="M194.748 449.232C193.8 423.358 195.522 404.164 191.395 390.521L191.124 389.624C188.267 380.181 179.532 381.863 177.79 392.314C177.477 394.197 177.274 396.146 177.168 398.102C176.652 407.702 178.184 422.663 181.365 441.552C185.658 467.037 186.702 490.478 192.324 490.238C197.945 489.997 195.696 475.107 194.748 449.232Z" fill="#EDAC7C"/>
<path d="M186.899 478.66C186.899 478.66 188.124 488.432 191.534 487.841C194.888 487.26 195.999 478.66 195.999 478.66C195.999 478.66 199.036 487.813 198.458 492.172C198.132 494.628 198.174 498.812 198.272 501.998C198.344 504.371 196.441 506.332 194.065 506.332C194.065 506.332 189.955 506.831 188.251 509.309C186.548 511.787 177.213 511.052 174.255 509.463C170.463 507.428 180.413 497.072 183.932 491.301C187.452 485.529 186.899 478.66 186.899 478.66Z" fill="#361710"/>
<path d="M215.962 330.392L193.966 326.41V326.256L193.544 326.334L193.122 326.256V326.41L171.127 330.392C171.127 330.392 163.348 341.977 164.871 355.605C166.392 369.231 173.407 442.931 173.407 442.931H211.272C211.272 442.931 220.695 369.231 222.217 355.605C223.739 341.977 215.962 330.392 215.962 330.392Z" fill="#195172"/>
<path d="M218.583 335.3C217.195 332.231 215.962 330.391 215.962 330.391L193.966 326.408V326.255L193.544 326.332L193.123 326.255V326.408L171.127 330.391C171.127 330.391 169.893 332.231 168.507 335.3H218.583Z" fill="#0D435E"/>
<path d="M198.274 442.93L198.531 369.305L204.837 442.93" fill="#0D435E"/>
<path d="M164.689 351.208C166.823 351.144 170.419 350.721 175.623 349.075C184.748 346.19 184.825 334.145 184.825 334.145L184.581 327.957L171.127 330.392C171.127 330.392 164.968 339.576 164.689 351.208Z" fill="#0D435E"/>
<path d="M222.4 351.209C222.122 339.576 215.962 330.392 215.962 330.392L201.582 327.788L201.215 334.144C201.215 334.144 201.292 346.189 210.417 349.074C216.601 351.031 220.514 351.262 222.4 351.209Z" fill="#0D435E"/>
<path d="M172.355 267.913L187.981 261.563L200.244 261.695L219.405 269.687C219.405 269.687 209.417 304.018 210.075 312.877C210.733 321.735 215.961 331.761 215.961 331.761H172.355C172.355 331.761 180.163 315.964 178.449 306.646C176.734 297.327 172.355 267.913 172.355 267.913Z" fill="#5C93BC"/>
<path d="M209.015 214.24C203.713 204.319 175.683 200.805 170.529 231.995C166.771 254.725 192.343 260.084 205.305 255.922C227.357 248.842 214.319 224.16 209.015 214.24Z" fill="#3E150D"/>
<path d="M213.579 235.341C213.579 235.341 217.542 230.251 221.189 233.595C224.837 236.94 219.624 247.246 212.638 244.821L213.579 235.341Z" fill="#EDAC7C"/>
<path d="M213.223 238.933L212.737 243.814C218.78 244.898 222.228 236.484 219.449 235.318C217.201 234.374 214.411 237.326 213.223 238.933Z" fill="#F7A588"/>
<path d="M220.422 237.061C220.422 237.061 220.411 237.023 220.392 236.953C220.374 236.884 220.34 236.785 220.301 236.661C220.21 236.419 220.055 236.069 219.759 235.818C219.685 235.754 219.599 235.704 219.51 235.661C219.464 235.641 219.419 235.62 219.367 235.603L219.334 235.592L219.332 235.591C219.358 235.6 219.337 235.593 219.342 235.595L219.337 235.593L219.324 235.591L219.3 235.585L219.205 235.559C219.136 235.538 219.084 235.531 219.032 235.523C218.983 235.514 218.927 235.506 218.863 235.502C218.805 235.499 218.745 235.495 218.687 235.496C218.623 235.496 218.563 235.494 218.501 235.502C218.005 235.537 217.48 235.73 216.98 235.998C216.725 236.129 216.483 236.286 216.244 236.445C216.008 236.607 215.775 236.774 215.555 236.942C215.116 237.281 214.717 237.623 214.371 237.918C213.681 238.528 213.223 238.934 213.223 238.934C213.223 238.934 213.282 238.79 213.411 238.551C213.542 238.313 213.739 237.978 214.014 237.603C214.154 237.416 214.306 237.212 214.483 237.011C214.659 236.808 214.855 236.6 215.069 236.396C215.499 235.989 216.002 235.588 216.583 235.279C216.873 235.125 217.18 234.993 217.502 234.903C217.824 234.813 218.163 234.765 218.493 234.778C218.575 234.779 218.656 234.786 218.738 234.797C218.819 234.802 218.897 234.82 218.976 234.838C219.053 234.853 219.131 234.876 219.211 234.902C219.292 234.927 219.368 234.953 219.421 234.982L219.512 235.024L219.57 235.051L219.622 235.078C219.69 235.114 219.752 235.157 219.812 235.202C219.928 235.294 220.031 235.395 220.11 235.502C220.277 235.712 220.359 235.937 220.406 236.132C220.456 236.326 220.461 236.498 220.464 236.634C220.464 236.771 220.448 236.881 220.439 236.952C220.428 237.025 220.422 237.061 220.422 237.061Z" fill="#CF9166"/>
<path d="M176.837 234.943C176.837 234.943 172.985 229.772 169.267 233.036C165.546 236.3 170.537 246.717 177.575 244.443L176.837 234.943Z" fill="#EDAC7C"/>
<path d="M177.117 238.545L177.497 243.435C171.433 244.391 168.167 235.904 170.971 234.798C173.237 233.904 175.964 236.913 177.117 238.545Z" fill="#F7A588"/>
<path d="M169.96 236.518C169.96 236.518 169.971 236.483 169.992 236.412C170.012 236.342 170.047 236.244 170.091 236.12C170.184 235.879 170.346 235.534 170.65 235.288C170.724 235.227 170.809 235.179 170.901 235.137C170.949 235.12 170.993 235.098 171.042 235.084L171.081 235.073L171.083 235.072C171.055 235.082 171.078 235.073 171.072 235.075H171.078L171.089 235.071L171.112 235.065L171.21 235.042C171.277 235.022 171.331 235.016 171.383 235.01C171.433 235 171.49 234.996 171.552 234.993C171.611 234.99 171.668 234.988 171.729 234.991C171.79 234.991 171.851 234.992 171.914 235.001C172.408 235.045 172.931 235.249 173.425 235.53C173.675 235.667 173.915 235.827 174.151 235.992C174.383 236.159 174.612 236.33 174.829 236.504C175.26 236.853 175.652 237.203 175.992 237.504C176.668 238.129 177.117 238.545 177.117 238.545C177.117 238.545 177.06 238.4 176.936 238.158C176.813 237.919 176.622 237.578 176.353 237.197C176.22 237.008 176.07 236.8 175.897 236.595C175.725 236.389 175.537 236.176 175.326 235.967C174.906 235.553 174.412 235.141 173.838 234.817C173.552 234.661 173.245 234.521 172.925 234.424C172.605 234.327 172.268 234.271 171.939 234.276C171.855 234.275 171.774 234.283 171.693 234.291C171.611 234.294 171.532 234.308 171.452 234.327C171.377 234.338 171.299 234.359 171.217 234.385C171.136 234.41 171.06 234.433 171.005 234.461L170.914 234.499L170.856 234.526L170.803 234.552C170.734 234.586 170.67 234.628 170.609 234.671C170.492 234.762 170.389 234.86 170.305 234.965C170.134 235.173 170.048 235.396 169.996 235.588C169.942 235.781 169.933 235.953 169.928 236.091C169.925 236.229 169.937 236.337 169.945 236.409C169.955 236.48 169.96 236.518 169.96 236.518Z" fill="#CF9166"/>
<path d="M199.426 250.991L189.479 250.882C189.479 250.882 188.928 266.454 188.891 266.454C188.891 266.454 189.588 269.568 194 269.684C198.413 269.799 199.536 266.567 199.536 266.567C199.5 266.482 199.426 250.991 199.426 250.991Z" fill="#EDAC7C"/>
<path d="M199.536 256.723L189.167 256.377C189.167 256.377 189.108 262.107 189.071 262.107C189.071 262.107 189.628 265.749 194.042 265.865C198.455 265.98 199.493 262.635 199.493 262.635C199.458 262.548 199.536 256.723 199.536 256.723Z" fill="#CF9166"/>
<path d="M199.394 253.855L189.447 253.747C189.447 253.747 189.3 255.734 189.168 257.426C189.147 257.67 192.001 258.135 192.311 258.186C194.741 258.599 197.142 258.312 199.518 257.734C199.459 256.002 199.394 253.855 199.394 253.855Z" fill="#CF9166"/>
<path d="M218.652 231.288C218.518 243.691 207.648 253.631 194.372 253.488C181.097 253.346 170.444 243.173 170.576 230.769C170.71 218.364 181.581 208.423 194.857 208.566C208.131 208.71 218.787 218.882 218.652 231.288Z" fill="#3E150D"/>
<path d="M216.099 230.955C215.933 224.043 213.032 217.486 206.233 214.73C202.775 213.328 198.967 212.923 195.25 212.943C191.579 212.964 187.668 213.16 184.202 214.452C177.997 216.77 176.312 212.987 175.616 219.292C175.546 219.909 174.726 222.55 173.886 230.5C173.735 231.917 173.696 233.324 173.733 234.755C173.818 237.968 174.293 241.195 175.309 244.256C176.539 247.97 178.624 251.427 181.683 253.967C183.42 255.411 185.427 256.523 187.557 257.302C191.076 258.584 194.435 259.032 198.135 258.392C200.644 257.958 203.093 257.166 205.305 255.923C208.974 253.862 211.74 250.626 213.486 246.869C214.953 243.708 215.738 240.26 216.05 236.808C216.22 234.918 216.278 232.996 216.113 231.106C216.108 231.055 216.1 231.006 216.099 230.955Z" fill="#EDAC7C"/>
<path d="M201.415 237.493C201.317 239.456 202.7 241.117 204.503 241.206C206.306 241.295 207.846 239.773 207.945 237.81C208.043 235.847 206.662 234.185 204.857 234.098C203.055 234.009 201.513 235.531 201.415 237.493Z" fill="#CF9166"/>
<path d="M201.456 236.663C201.357 238.626 202.74 240.287 204.543 240.377C206.347 240.465 207.887 238.944 207.985 236.982C208.085 235.019 206.703 233.355 204.898 233.268C203.096 233.181 201.554 234.7 201.456 236.663Z" fill="black"/>
<path d="M202.625 235.755C202.589 236.466 203.148 237.072 203.87 237.106C204.594 237.142 205.209 236.595 205.244 235.883C205.281 235.172 204.722 234.569 204 234.533C203.277 234.496 202.661 235.045 202.625 235.755Z" fill="white"/>
<path d="M181.944 236.727C181.846 238.689 183.228 240.351 185.03 240.44C186.835 240.528 188.375 239.006 188.473 237.045C188.572 235.082 187.191 233.419 185.386 233.332C183.585 233.245 182.042 234.763 181.944 236.727Z" fill="#CF9166"/>
<path d="M181.986 235.896C181.887 237.86 183.271 239.521 185.072 239.61C186.877 239.698 188.417 238.179 188.515 236.214C188.615 234.253 187.232 232.589 185.428 232.502C183.627 232.415 182.084 233.935 181.986 235.896Z" fill="black"/>
<path d="M183.155 234.988C183.12 235.699 183.675 236.305 184.4 236.339C185.123 236.375 185.739 235.828 185.775 235.115C185.809 234.405 185.253 233.8 184.527 233.765C183.805 233.73 183.19 234.277 183.155 234.988Z" fill="white"/>
<path d="M193.449 234.563C193.449 234.563 193.928 238.884 191.893 238.524C187.954 237.836 187.944 246.276 193.891 243.133C196.136 241.948 195.396 234.621 195.396 234.621L193.449 234.563Z" fill="#F48470"/>
<path d="M189.276 246.934C189.276 246.934 197.201 248.253 200.967 243.712C200.967 243.712 204.133 252.195 195.624 253.284C190.249 253.969 189.276 246.934 189.276 246.934Z" fill="#B43128"/>
<path d="M191.971 252.285C192.871 253.027 194.061 253.482 195.624 253.284C197.554 253.035 198.881 252.408 199.785 251.588C200.044 251.34 200.274 251.075 200.484 250.8C200.49 250.794 200.494 250.787 200.498 250.782C200.502 250.777 200.502 250.775 200.504 250.772C201.153 249.855 201.432 248.803 201.515 247.796C196.733 246.546 193.305 250.284 191.971 252.285Z" fill="#F05736"/>
<path d="M189.276 246.935C189.276 246.935 189.286 246.996 189.304 247.103C190.075 247.262 191.503 248.939 193.426 248.872C194.642 248.832 195.834 248.495 196.928 247.98C197.607 247.661 198.308 247.354 198.895 246.883C199.345 246.524 199.669 245.458 199.859 244.8C195.841 248.025 189.277 246.935 189.276 246.935Z" fill="white"/>
<path d="M189.806 247.433C190.149 249.02 191.475 253.386 195.57 252.862C197.839 252.574 199.433 251.708 200.308 250.294C201.516 248.34 201.084 245.778 200.772 244.56C197.368 247.936 191.673 247.637 189.806 247.433ZM194.835 253.752C189.838 253.699 188.859 247.064 188.851 246.992C188.832 246.861 188.878 246.726 188.977 246.633C189.076 246.539 189.212 246.496 189.349 246.519C189.425 246.53 197.074 247.74 200.633 243.445C200.731 243.328 200.885 243.269 201.038 243.295C201.191 243.32 201.318 243.424 201.372 243.568C201.434 243.735 202.892 247.737 201.047 250.73C200.03 252.376 198.225 253.379 195.681 253.703C195.385 253.741 195.106 253.756 194.835 253.752Z" fill="#F05B4E"/>
<path d="M186.192 246.472C186.173 248.283 184.664 249.735 182.822 249.715C180.979 249.695 179.499 248.211 179.517 246.399C179.538 244.587 181.048 243.136 182.891 243.155C184.733 243.177 186.212 244.66 186.192 246.472Z" fill="#F49B77"/>
<path d="M210.149 244.621C210.129 246.433 208.619 247.886 206.774 247.865C204.934 247.846 203.455 246.362 203.474 244.55C203.494 242.739 205.003 241.287 206.846 241.306C208.688 241.327 210.168 242.812 210.149 244.621Z" fill="#F49B77"/>
<path d="M179.697 227.763C179.697 227.763 179.771 227.627 179.943 227.416C180.031 227.315 180.137 227.183 180.275 227.056C180.409 226.921 180.569 226.781 180.754 226.636C180.938 226.492 181.147 226.347 181.376 226.206C181.608 226.071 181.855 225.926 182.127 225.812C182.391 225.682 182.679 225.582 182.973 225.484C183.268 225.383 183.579 225.326 183.884 225.247C184.194 225.198 184.508 225.151 184.814 225.121C185.122 225.104 185.428 225.096 185.718 225.097C186.013 225.113 186.295 225.138 186.56 225.164C186.828 225.195 187.075 225.256 187.303 225.301C187.528 225.353 187.734 225.396 187.914 225.465C188.093 225.527 188.248 225.586 188.374 225.635C188.624 225.732 188.764 225.801 188.764 225.801C188.764 225.801 188.605 225.822 188.338 225.841C188.204 225.851 188.043 225.865 187.86 225.87C187.68 225.871 187.473 225.895 187.25 225.913C187.029 225.933 186.79 225.933 186.54 225.961C186.289 225.988 186.029 226.014 185.758 226.033C185.49 226.069 185.216 226.11 184.932 226.142C184.656 226.189 184.376 226.236 184.094 226.285C183.954 226.315 183.815 226.348 183.677 226.376C183.537 226.406 183.398 226.429 183.265 226.47C183.129 226.507 182.993 226.54 182.859 226.572C182.724 226.602 182.6 226.652 182.469 226.686C182.209 226.756 181.965 226.843 181.727 226.92C181.608 226.956 181.498 227.006 181.388 227.043C181.277 227.084 181.168 227.118 181.067 227.163C180.864 227.243 180.675 227.317 180.511 227.39C180.341 227.458 180.199 227.528 180.075 227.581C179.961 227.64 179.859 227.679 179.798 227.714C179.732 227.746 179.697 227.763 179.697 227.763Z" fill="black"/>
<path d="M208.094 232.505C208.094 232.505 208.003 232.379 207.806 232.193C207.703 232.104 207.585 231.985 207.433 231.875C207.282 231.761 207.102 231.642 206.904 231.521C206.702 231.401 206.477 231.285 206.23 231.176C205.982 231.071 205.719 230.959 205.435 230.882C205.156 230.786 204.858 230.723 204.553 230.663C204.249 230.6 203.934 230.584 203.621 230.547C203.305 230.536 202.992 230.53 202.682 230.54C202.373 230.562 202.07 230.593 201.779 230.631C201.491 230.685 201.215 230.746 200.953 230.805C200.695 230.869 200.458 230.963 200.238 231.037C200.019 231.117 199.819 231.187 199.652 231.277C199.481 231.361 199.336 231.44 199.219 231.505C198.979 231.634 198.852 231.718 198.852 231.718C198.852 231.718 199.012 231.722 199.279 231.707C199.411 231.698 199.574 231.69 199.757 231.673C199.936 231.651 200.143 231.648 200.367 231.636C200.588 231.628 200.824 231.598 201.079 231.593C201.33 231.588 201.591 231.581 201.861 231.566C202.133 231.568 202.413 231.573 202.695 231.566C202.976 231.576 203.259 231.59 203.546 231.602C203.687 231.614 203.829 231.626 203.971 231.637C204.111 231.65 204.253 231.655 204.392 231.679C204.53 231.7 204.669 231.713 204.806 231.728C204.944 231.741 205.076 231.773 205.208 231.792C205.476 231.827 205.728 231.883 205.975 231.929C206.098 231.947 206.211 231.984 206.326 232.006C206.441 232.032 206.555 232.053 206.659 232.083C206.871 232.138 207.069 232.187 207.241 232.237C207.419 232.285 207.567 232.335 207.694 232.372C207.817 232.416 207.922 232.441 207.989 232.468C208.057 232.491 208.094 232.505 208.094 232.505Z" fill="black"/>
<path d="M215.815 241.27C215.815 241.27 216.339 240.303 217.336 238.461C221.067 231.559 222.643 223.46 220.63 215.878C219.547 211.801 217.317 209.817 215.502 208.856C213.642 207.872 205.185 202.531 200.108 200.989C190.944 198.205 181.185 201.103 174.328 205.864C167.471 210.625 158.526 226.223 165.942 226.383C173.359 226.544 184.633 216.11 181.283 218.799C176.487 222.651 181.181 223.058 191.914 223.426C202.645 223.792 209.008 220.058 209.008 220.058C209.008 220.058 208.604 223.343 210.185 228.209C211.765 233.075 216.151 238.618 216.151 238.618" fill="#361710"/>
<path d="M182.215 263.907L184.825 330.233C184.825 330.233 184.747 342.279 175.623 345.165C166.498 348.051 162.3 347.185 162.3 347.185C162.3 347.185 172.218 304.432 170.229 294.858C168.24 285.285 165.193 269.988 165.193 269.988L182.215 263.907Z" fill="#122738"/>
<path d="M205.059 263.73L201.215 330.233C201.215 330.233 201.292 342.279 210.417 345.165C219.542 348.051 223.74 347.185 223.74 347.185C223.74 347.185 213.82 304.432 215.809 294.858C217.799 285.285 220.847 269.989 220.847 269.989L205.059 263.73Z" fill="#122738"/>
<path d="M231.09 282.722C231.09 282.722 249.501 304.521 249.534 311.379C249.566 318.239 239.908 316.073 239.908 316.073L222.459 291.167L231.09 282.722Z" fill="#EDAC7C"/>
<path d="M231.09 282.722L222.459 291.167L229.396 301.068C229.396 301.068 233.51 294.933 240.963 295.395C236.146 288.709 231.09 282.722 231.09 282.722Z" fill="#CF9166"/>
<path d="M164.133 284.793C164.133 284.793 139.537 299.256 132.772 298.129C126.006 297.002 129.772 287.849 129.772 287.849L157.269 274.86L164.133 284.793Z" fill="#EDAC7C"/>
<path d="M143.749 295.237C153.077 291.292 164.133 284.794 164.133 284.794L157.269 274.861L143.743 281.249C143.743 281.249 148.758 292.156 143.749 295.237" fill="#CF9166"/>
<path d="M245.374 316.202C245.424 316.175 245.473 316.145 245.523 316.115C247.459 314.944 248.884 313.051 249.859 311.006C251.933 306.655 253.029 301.614 254.607 297.049C255.835 293.492 256.949 289.657 258.454 286.079C258.223 285.974 258.007 285.84 257.814 285.659C255.901 283.868 254.961 282.653 252.759 281.229C252.127 286.724 244.416 297.512 241.197 306.085C240.561 307.779 240.007 309.533 239.945 311.341C239.83 314.742 241.678 318.34 245.374 316.202Z" fill="#EEC9B1"/>
<path d="M241.286 317.616C242.245 318.192 243.842 318.615 246.037 317.349L246.207 317.248C248.178 316.056 249.852 314.093 251.053 311.576C252.457 308.631 253.422 305.397 254.356 302.269C254.831 300.675 255.323 299.027 255.857 297.482C256.232 296.397 256.596 295.285 256.964 294.165C257.792 291.643 258.646 289.036 259.674 286.591L260.172 285.403L258.998 284.872C258.884 284.82 258.793 284.762 258.719 284.693C258.212 284.219 257.775 283.785 257.363 283.378C256.201 282.226 255.199 281.231 253.476 280.118L251.687 278.96L251.443 281.078C251.119 283.906 248.58 288.574 245.892 293.519C243.684 297.576 241.403 301.77 239.958 305.62C239.336 307.274 238.691 309.242 238.622 311.296C238.527 314.107 239.572 316.587 241.286 317.616Z" fill="#EDAC7C"/>
<path d="M257.101 282.413C257.103 282.405 258.564 277.992 259.128 277.82C259.693 277.648 260.695 278.049 260.695 278.049L259.004 284.378C259.004 284.378 261.361 279.08 262.281 278.625C263.199 278.169 264.226 278.65 264.226 278.65L261.416 285.937C261.416 285.937 263.078 280.674 264.06 279.846C265.044 279.02 266.208 279.371 266.208 279.371L263.836 287.229L263.623 286.235C263.623 286.235 265.244 283.452 266.237 283.24C267.229 283.026 268.183 283.265 268.183 283.265C268.183 283.265 266.399 286.097 265.63 287.917C264.861 289.736 263.465 290.073 263.465 290.073C260.336 289.115 257.667 286.778 255.094 284.781C253.106 283.235 251.687 278.959 251.687 278.959C251.687 278.959 254.385 276.462 257.101 282.413" fill="#EDAC7C"/>
<path d="M130.439 295.394C130.402 295.35 130.366 295.306 130.33 295.261C128.91 293.499 128.215 291.235 127.997 288.979C127.532 284.182 128.221 279.069 128.296 274.239C128.355 270.477 128.616 266.491 128.424 262.615C128.675 262.595 128.926 262.542 129.168 262.439C131.577 261.407 132.876 260.587 135.432 260.001C134.15 265.38 137.717 278.151 137.818 287.308C137.838 289.118 137.759 290.955 137.201 292.677C136.149 295.913 133.184 298.666 130.439 295.394Z" fill="#EEC9B1"/>
<path d="M133.799 298.118C132.701 298.332 131.057 298.186 129.425 296.246L129.299 296.091C127.853 294.299 126.948 291.884 126.679 289.106C126.364 285.86 126.561 282.491 126.751 279.233C126.848 277.572 126.948 275.855 126.973 274.219C126.991 273.072 127.028 271.903 127.064 270.725C127.147 268.071 127.233 265.329 127.102 262.68L127.038 261.393L128.323 261.295C128.449 261.287 128.554 261.262 128.647 261.222C129.286 260.95 129.843 260.691 130.37 260.448C131.854 259.762 133.136 259.17 135.135 258.71L137.213 258.232L136.72 260.308C136.059 263.075 136.854 268.331 137.693 273.895C138.383 278.462 139.096 283.183 139.142 287.296C139.162 289.063 139.096 291.131 138.46 293.085C137.591 295.761 135.762 297.736 133.799 298.118Z" fill="#EDAC7C"/>
<path d="M130.946 259.632C130.946 259.623 131.079 254.976 130.608 254.622C130.135 254.269 129.056 254.302 129.056 254.302L128.486 260.829C128.486 260.829 128.079 255.045 127.37 254.303C126.661 253.562 125.531 253.663 125.531 253.663L125.687 261.471C125.687 261.471 125.921 255.957 125.279 254.845C124.638 253.732 123.424 253.664 123.424 253.664L122.972 261.861L123.511 260.999C123.511 260.999 122.937 257.831 122.076 257.291C121.216 256.752 120.238 256.65 120.238 256.65C120.238 256.65 120.948 259.922 121.05 261.895C121.153 263.868 122.349 264.659 122.349 264.659C125.619 264.827 128.924 263.541 132.025 262.54C134.421 261.767 137.213 258.232 137.213 258.232C137.213 258.232 135.529 254.964 130.946 259.632Z" fill="#EDAC7C"/>
<path d="M220.846 269.988C220.846 269.988 235.838 281.971 239.412 288.986L223.653 300.362L211.725 282.723L220.846 269.988Z" fill="#122738"/>
<path d="M165.195 269.987C165.195 269.987 152.302 276.305 144.6 280.394L151.547 297.398L173.562 289.281L165.195 269.987Z" fill="#122738"/>
<path d="M195.243 504.056C193.11 504.502 189.821 503.257 187.351 507.078C184.972 510.761 179.378 510.704 178.975 510.696C182.712 511.175 187.13 510.94 188.251 509.31C189.955 506.832 194.064 506.333 194.064 506.333C196.44 506.333 198.344 504.372 198.272 501.998C198.267 501.86 198.263 501.709 198.26 501.566C197.492 502.619 196.394 503.817 195.243 504.056Z" fill="#1C0906"/>
<path d="M420.98 208.313L422.753 208.942C424.637 209.609 425.623 211.677 424.956 213.562L424.311 215.381C423.645 217.264 421.576 218.251 419.692 217.583L417.918 216.956C416.035 216.288 415.048 214.219 415.716 212.335L416.36 210.517C417.027 208.632 419.095 207.647 420.98 208.313ZM441.463 159.879C446.072 161.51 448.973 164.399 450.168 168.541C451.124 171.816 450.98 175.211 449.733 178.728C447.65 184.61 443.004 189.26 435.797 192.678C433.284 193.87 431.532 195.671 430.541 198.085C430.191 198.882 429.837 199.781 429.482 200.781C428.816 202.666 426.747 203.651 424.864 202.985L423.091 202.356C421.206 201.689 420.219 199.621 420.887 197.736C422.788 192.37 425.519 188.851 429.082 187.177C432.929 185.366 435.91 183.164 438.024 180.568C439.243 179.055 440.192 177.343 440.868 175.433C441.566 173.463 441.674 171.76 441.193 170.328C440.682 168.68 439.462 167.649 437.527 167.237C435.723 166.837 434.056 167.595 432.524 169.509C432.448 169.601 432.372 169.695 432.297 169.793C431.202 171.213 429.224 171.608 427.663 170.725L426.132 169.86C424.237 168.789 423.704 166.293 425.005 164.547C426.296 162.813 427.853 161.417 429.674 160.36C431.648 159.216 434.007 158.721 436.752 158.874C438.195 158.943 439.766 159.277 441.463 159.879Z" fill="#FCC822"/>
<path d="M297.093 213.665L299.685 214.172C302.44 214.711 304.235 217.382 303.697 220.134L303.176 222.795C302.637 225.548 299.967 227.344 297.214 226.805L294.62 226.298C291.867 225.759 290.071 223.09 290.61 220.336L291.131 217.676C291.67 214.922 294.338 213.125 297.093 213.665ZM315.571 142.171C322.309 143.489 326.934 146.903 329.446 152.41C331.447 156.761 331.946 161.507 330.939 166.648C329.257 175.249 323.761 182.664 314.455 188.896C311.21 191.07 309.147 193.933 308.267 197.488C307.944 198.668 307.639 199.989 307.353 201.452C306.814 204.206 304.145 206.002 301.39 205.462L298.797 204.955C296.042 204.416 294.247 201.747 294.786 198.993C296.322 191.147 299.39 185.696 303.994 182.638C308.965 179.332 312.653 175.658 315.055 171.617C316.436 169.264 317.4 166.691 317.946 163.898C318.51 161.018 318.31 158.632 317.345 156.739C316.299 154.557 314.391 153.376 311.618 153.203C309.03 153.018 306.869 154.413 305.137 157.388C305.051 157.532 304.964 157.679 304.88 157.83C303.652 160.029 300.985 160.983 298.635 160.079L296.33 159.192C293.478 158.095 292.224 154.738 293.671 152.045C295.107 149.37 296.982 147.11 299.295 145.268C301.801 143.273 304.976 142.099 308.82 141.747C310.838 141.544 313.088 141.685 315.571 142.171" fill="#FCC822"/>
<path d="M255.282 259.713L257.105 259.245C259.04 258.748 261.013 259.915 261.509 261.849L261.99 263.72C262.487 265.654 261.32 267.627 259.384 268.124L257.561 268.592C255.627 269.089 253.654 267.923 253.157 265.986L252.677 264.117C252.18 262.182 253.346 260.21 255.282 259.713ZM245.264 208.087C249.999 206.871 254.018 207.649 257.321 210.42C259.94 212.605 261.713 215.502 262.641 219.118C264.194 225.162 262.933 231.613 258.858 238.47C257.437 240.861 256.988 243.334 257.512 245.889C257.665 246.746 257.873 247.689 258.137 248.718C258.635 250.654 257.468 252.626 255.532 253.122L253.71 253.591C251.774 254.087 249.803 252.922 249.305 250.986C247.89 245.471 248.192 241.026 250.215 237.651C252.4 234.002 253.645 230.511 253.951 227.177C254.118 225.241 253.95 223.291 253.446 221.329C252.926 219.304 252.067 217.831 250.867 216.91C249.525 215.827 247.937 215.653 246.1 216.39C244.38 217.065 243.419 218.624 243.216 221.066C243.205 221.186 243.194 221.306 243.186 221.429C243.07 223.22 241.649 224.65 239.86 224.788L238.107 224.924C235.936 225.091 234.103 223.318 234.208 221.143C234.313 218.984 234.825 216.957 235.748 215.064C236.748 213.014 238.43 211.286 240.793 209.882C242.029 209.134 243.518 208.535 245.264 208.087" fill="#FCC822"/>
<path d="M534.342 259.959L536.165 259.491C538.1 258.994 540.073 260.16 540.569 262.095L541.05 263.966C541.547 265.901 540.38 267.873 538.446 268.371L536.621 268.838C534.687 269.336 532.714 268.169 532.217 266.233L531.737 264.364C531.24 262.429 532.406 260.456 534.342 259.959ZM524.324 208.334C529.06 207.118 533.078 207.896 536.381 210.667C539 212.852 540.773 215.75 541.701 219.363C543.254 225.409 541.993 231.86 537.918 238.717C536.497 241.108 536.048 243.58 536.572 246.136C536.725 246.993 536.934 247.937 537.197 248.964C537.695 250.9 536.528 252.873 534.593 253.369L532.77 253.838C530.834 254.334 528.863 253.169 528.365 251.233C526.95 245.718 527.253 241.273 529.275 237.897C531.46 234.249 532.705 230.758 533.011 227.423C533.178 225.487 533.01 223.538 532.506 221.576C531.986 219.55 531.127 218.078 529.927 217.157C528.585 216.074 526.997 215.9 525.161 216.637C523.442 217.311 522.479 218.869 522.276 221.313C522.265 221.432 522.254 221.553 522.247 221.676C522.13 223.466 520.709 224.897 518.92 225.035L517.167 225.171C514.998 225.338 513.163 223.564 513.268 221.39C513.373 219.23 513.885 217.203 514.808 215.31C515.808 213.26 517.49 211.533 519.853 210.129C521.089 209.381 522.579 208.782 524.324 208.334" fill="#FCC822"/>
<path d="M327.929 328.357L335.611 295.914L321.641 295.387L314.302 325.335C313.783 327.448 313.904 329.668 314.647 331.712L327.998 368.451L343.988 366.908L327.929 328.357Z" fill="#A7A6BB"/>
<path d="M321.613 324.026C323.037 321.162 324.42 318.602 325.761 316.344C327.616 313.033 329.962 310.224 332.776 307.893L335.612 295.915L321.641 295.387L314.302 325.336C313.94 326.812 313.909 328.337 314.165 329.821C317.285 329.139 320.08 327.109 321.613 324.026Z" fill="#727293"/>
<path d="M341.541 435.384L341.201 436.96L339.415 445.247L331.51 481.923L330.649 485.908L330.456 486.806L328.866 504.225L326.993 504.792C322.239 506.236 317.382 505.924 313.144 504.185C311.409 503.473 309.64 501.74 308.406 500.362C307.009 498.802 305.879 497.01 305.004 495.108C302.49 489.641 301.908 483.414 301.777 477.469C301.732 475.46 301.744 473.45 301.744 471.439V451.732V434.5V428.24C303.196 428.24 304.826 428.058 305.991 427.978C307.04 427.911 308.926 427.559 310.006 427.559C314.242 426.106 318.61 426.503 322.698 426.006C324.64 425.77 326.52 425.657 328.289 425.584C330.754 425.485 333.008 425.632 334.932 426.109C338.966 427.114 341.541 429.762 341.541 435.384Z" fill="#1C1B2D"/>
<path d="M373.255 490.066L331.197 503.52L328.866 504.226L326.993 504.791C322.239 506.235 317.383 505.924 313.144 504.185C312.04 503.565 310.996 502.84 310.03 502.028C310.023 502.024 310.02 502.017 310.013 502.01C306.755 499.003 304.477 494.937 303.693 490.356L328.031 482.976L331.509 481.924L367.668 471.641L373.255 490.066Z" fill="#1C1B2D"/>
<path d="M395.529 493.1C394.988 490.754 394.043 487.849 393.834 486.933C393.031 483.417 391.842 479.984 390.832 476.524C390.463 475.257 390.011 474.382 389.856 474.105C389.778 473.978 389.789 473.984 389.856 474.105C389.969 474.29 390.264 474.745 390.841 475.535C389.784 474.09 388.937 472.73 388.238 471.091C387.45 469.242 386.844 467.39 386.389 465.546L360.388 473.311L366.275 493.029L378.474 489.386C379.227 489.161 380.019 489.589 380.244 490.341L381.499 494.548C381.889 495.85 382.449 497.053 383.125 498.163C383.833 497.916 384.555 497.71 385.293 497.551C388.516 496.857 391.59 495.715 394.676 494.611C394.938 494.097 395.219 493.592 395.529 493.1Z" fill="#361710"/>
<path d="M371.568 476.351C373.853 475.668 376.259 476.968 376.942 479.253C377.624 481.538 376.325 483.944 374.04 484.627C371.755 485.309 369.349 484.01 368.666 481.725C367.984 479.44 369.283 477.034 371.568 476.351Z" fill="white"/>
<path d="M381.612 494.892C384.192 502.854 392.667 507.34 400.727 504.933C401.479 504.707 401.908 503.916 401.683 503.164L397.772 490.067L381.612 494.892Z" fill="white"/>
<path d="M395.461 505.557C397.192 505.652 398.97 505.457 400.728 504.932C401.48 504.707 401.908 503.915 401.684 503.163L390.524 465.797C390.3 465.044 389.508 464.615 388.755 464.841L383.749 466.335L395.461 505.557Z" fill="white"/>
<path d="M372.822 372.193L370.556 376.836L358.679 401.163L339.13 441.204L302.258 426.271L313.548 400.601L321.645 382.198L334.044 354.006L372.822 372.193Z" fill="#A7A6BB"/>
<path d="M366.204 380.168C365.792 380.168 365.013 379.604 364.082 378.815C362.054 389.48 351.611 397.836 340.768 397.836C331.538 397.836 323.985 392.577 320.049 385.061L311.907 404.333L320.532 417.465C322.36 420.178 325.938 421.087 328.843 419.575L357.037 404.896L368.914 380.57C368.042 380.306 367.127 380.168 366.204 380.168Z" fill="#727293"/>
<path d="M354.147 386.022C352.012 386.022 349.979 385.714 348.047 385.189L324.382 433.659L302.846 424.936L302.259 426.271L339.13 441.205L368.55 380.945C364.424 384.106 359.333 386.022 354.147 386.022Z" fill="#727293"/>
<path d="M379.955 339.804C379.955 339.804 385.678 336.471 387.874 341.052C390.072 345.634 381.162 353.458 375.433 348.477L379.955 339.804Z" fill="#EDAC7C"/>
<path d="M378.241 343.091L375.912 347.556C381.254 350.901 387.759 344.202 385.556 342.028C383.775 340.27 379.988 342.015 378.241 343.091Z" fill="#F7A588"/>
<path d="M385.817 344.061C385.817 344.061 385.821 344.021 385.83 343.946C385.839 343.872 385.845 343.765 385.855 343.632C385.862 343.368 385.847 342.975 385.66 342.622C385.614 342.534 385.552 342.453 385.484 342.378C385.447 342.341 385.413 342.305 385.37 342.268L385.341 342.244L385.34 342.241C385.361 342.262 385.345 342.247 385.348 342.25L385.345 342.247L385.332 342.239L385.314 342.224L385.232 342.164C385.174 342.118 385.127 342.09 385.082 342.064C385.037 342.035 384.987 342.007 384.928 341.98C384.875 341.953 384.819 341.926 384.761 341.906C384.702 341.881 384.646 341.855 384.583 341.839C384.098 341.684 383.523 341.668 382.944 341.732C382.651 341.759 382.361 341.816 382.072 341.876C381.785 341.94 381.499 342.01 381.227 342.086C380.677 342.241 380.166 342.414 379.724 342.563C378.835 342.88 378.241 343.091 378.241 343.091C378.241 343.091 378.353 342.978 378.567 342.799C378.784 342.622 379.099 342.379 379.505 342.126C379.709 342.002 379.932 341.866 380.177 341.741C380.423 341.616 380.689 341.493 380.971 341.38C381.536 341.158 382.17 340.966 382.84 340.894C383.176 340.86 383.518 340.85 383.86 340.888C384.201 340.925 384.542 341.01 384.852 341.147C384.93 341.179 385.004 341.217 385.079 341.259C385.154 341.296 385.222 341.343 385.29 341.389C385.358 341.433 385.423 341.483 385.489 341.54C385.556 341.595 385.619 341.648 385.658 341.695L385.73 341.773L385.773 341.819L385.813 341.866C385.864 341.926 385.907 341.989 385.947 342.055C386.023 342.187 386.081 342.322 386.117 342.454C386.195 342.719 386.187 342.966 386.157 343.17C386.13 343.372 386.07 343.539 386.02 343.669C385.968 343.799 385.912 343.897 385.876 343.963C385.838 344.028 385.817 344.061 385.817 344.061Z" fill="#CF9166"/>
<path d="M345.099 325.377C345.099 325.377 343.406 318.976 338.615 320.664C333.822 322.352 334.595 334.185 342.17 334.711L345.099 325.377Z" fill="#EDAC7C"/>
<path d="M343.988 328.915L342.48 333.718C336.338 332.311 336.47 322.977 339.566 322.994C342.066 323.008 343.513 326.92 343.988 328.915Z" fill="#F7A588"/>
<path d="M337.944 324.246C337.944 324.246 337.969 324.216 338.016 324.157C338.062 324.098 338.131 324.018 338.221 323.918C338.4 323.723 338.688 323.455 339.072 323.339C339.165 323.31 339.265 323.296 339.37 323.291C339.421 323.293 339.473 323.288 339.523 323.295L339.565 323.298H339.567C339.536 323.297 339.561 323.297 339.556 323.297L339.56 323.298L339.574 323.299L339.598 323.303L339.7 323.318C339.771 323.325 339.825 323.341 339.876 323.354C339.929 323.363 339.984 323.38 340.044 323.403C340.101 323.42 340.158 323.442 340.214 323.468C340.272 323.492 340.329 323.515 340.386 323.548C340.84 323.779 341.259 324.175 341.624 324.63C341.809 324.855 341.976 325.101 342.139 325.348C342.297 325.596 342.449 325.847 342.588 326.095C342.865 326.593 343.106 327.076 343.315 327.493C343.719 328.347 343.988 328.915 343.988 328.915C343.988 328.915 343.99 328.754 343.964 328.477C343.939 328.202 343.886 327.804 343.776 327.338C343.721 327.106 343.658 326.852 343.571 326.591C343.486 326.328 343.388 326.053 343.267 325.773C343.026 325.218 342.712 324.637 342.29 324.109C342.078 323.849 341.838 323.599 341.57 323.385C341.303 323.169 341.003 322.989 340.687 322.868C340.608 322.833 340.528 322.81 340.447 322.787C340.367 322.759 340.288 322.742 340.204 322.729C340.128 322.712 340.045 322.702 339.957 322.695C339.871 322.687 339.789 322.681 339.726 322.687L339.625 322.688L339.56 322.69L339.5 322.696C339.421 322.702 339.342 322.718 339.268 322.735C339.123 322.777 338.987 322.831 338.866 322.898C338.625 323.031 338.457 323.212 338.335 323.374C338.208 323.538 338.134 323.697 338.078 323.827C338.022 323.957 337.993 324.065 337.972 324.137C337.954 324.208 337.944 324.246 337.944 324.246Z" fill="#CF9166"/>
<path d="M360.485 349.305L351.049 345.397C351.049 345.397 344.57 360.025 344.535 360.01C344.535 360.01 344.008 363.244 348.168 365.041C352.329 366.839 354.634 364.189 354.634 364.189C354.633 364.093 360.485 349.305 360.485 349.305Z" fill="#EDAC7C"/>
<path d="M357.452 357.157L347.378 353.657C347.378 353.657 345.128 358.806 345.093 358.791C345.093 358.791 344.704 361.376 348.863 363.176C353.024 364.972 355.194 362.747 355.194 362.747C355.193 362.652 357.452 357.157 357.452 357.157Z" fill="#CF9166"/>
<path d="M359.36 352.021L349.924 348.114C349.924 348.114 349.024 349.952 348.25 351.513C348.137 351.738 350.679 353.271 350.954 353.439C353.112 354.762 355.51 355.406 357.994 355.765C358.6 354.091 359.36 352.021 359.36 352.021Z" fill="#CF9166"/>
<path d="M384.071 325.001C375.792 325.001 368.855 320.774 364.673 314.48H341.865C341.444 315.853 341.062 317.348 340.729 319.005C338.222 331.493 341.495 347.741 354.089 352.953C366.683 358.167 381.469 349.649 386.338 337.883C388.114 333.592 388.395 329.041 387.441 324.734C386.328 324.908 385.201 325.001 384.071 325.001Z" fill="#3E150D"/>
<path d="M384.033 336.591C386.519 329.941 386.261 322.583 380.837 317.358C378.079 314.7 374.604 312.858 371.056 311.457C367.55 310.071 363.748 308.762 359.952 308.668C353.153 308.503 352.749 311.891 349.675 317.631C349.372 318.193 344.249 319.434 343.986 320.014C343.379 321.345 342.724 322.633 342.213 324.009C341.065 327.103 340.285 330.36 340.081 333.666C339.834 337.675 340.498 341.765 342.441 345.355C343.544 347.397 345.031 349.224 346.763 350.779C349.626 353.347 352.655 355.057 356.426 355.862C358.982 356.409 361.619 356.591 364.201 356.251C368.485 355.69 372.358 353.666 375.459 350.754C378.065 348.303 380.131 345.317 381.748 342.148C382.633 340.412 383.422 338.603 383.989 336.739C384.004 336.689 384.015 336.639 384.033 336.591Z" fill="#EDAC7C"/>
<path d="M367.196 335.094C366.353 336.926 367.034 339.039 368.718 339.812C370.403 340.586 372.451 339.726 373.297 337.893C374.141 336.06 373.459 333.949 371.775 333.175C370.09 332.401 368.04 333.26 367.196 335.094Z" fill="#CF9166"/>
<path d="M367.455 333.771C366.61 335.604 367.292 337.716 368.975 338.491C370.661 339.265 372.71 338.405 373.554 336.572C374.4 334.741 373.719 332.627 372.034 331.853C370.349 331.081 368.298 331.939 367.455 333.771Z" fill="black"/>
<path d="M368.916 333.354C368.609 334.017 368.911 334.807 369.586 335.116C370.262 335.427 371.056 335.142 371.363 334.477C371.668 333.813 371.367 333.024 370.693 332.714C370.018 332.404 369.222 332.689 368.916 333.354Z" fill="white"/>
<path d="M348.202 328.073C347.358 329.907 348.038 332.019 349.723 332.792C351.408 333.565 353.458 332.704 354.301 330.874C355.145 329.042 354.465 326.928 352.781 326.154C351.097 325.383 349.046 326.24 348.202 328.073Z" fill="#CF9166"/>
<path d="M348.559 327.296C347.714 329.129 348.397 331.241 350.081 332.015C351.766 332.789 353.815 331.93 354.659 330.097C355.504 328.266 354.822 326.151 353.139 325.378C351.455 324.606 349.402 325.465 348.559 327.296Z" fill="black"/>
<path d="M350.019 326.88C349.714 327.542 350.013 328.333 350.69 328.642C351.365 328.954 352.162 328.668 352.468 328.003C352.772 327.339 352.474 326.55 351.796 326.239C351.122 325.93 350.326 326.216 350.019 326.88Z" fill="white"/>
<path d="M360.229 328.533C360.229 328.533 359.127 335.716 357.109 335.068C353.198 333.817 352.011 342.402 358.498 340.034C360.948 339.141 362.202 328.864 362.202 328.864L360.229 328.533Z" fill="#F48470"/>
<path d="M347.693 324.203C347.693 324.203 347.815 324.101 348.059 323.968C348.183 323.903 348.335 323.818 348.514 323.75C348.693 323.672 348.899 323.602 349.132 323.534C349.362 323.466 349.616 323.408 349.887 323.362C350.16 323.32 350.451 323.278 350.754 323.272C351.055 323.25 351.367 323.265 351.686 323.285C352.006 323.3 352.324 323.365 352.645 323.408C352.959 323.479 353.275 323.554 353.579 323.643C353.879 323.744 354.172 323.853 354.45 323.964C354.724 324.092 354.983 324.225 355.226 324.351C355.47 324.481 355.681 324.636 355.88 324.765C356.075 324.901 356.257 325.022 356.401 325.156C356.547 325.282 356.672 325.399 356.774 325.493C356.976 325.68 357.083 325.8 357.083 325.8C357.083 325.8 356.923 325.761 356.661 325.676C356.53 325.634 356.371 325.585 356.194 325.521C356.022 325.453 355.817 325.397 355.597 325.328C355.378 325.263 355.153 325.171 354.903 325.102C354.653 325.033 354.395 324.957 354.13 324.873C353.859 324.804 353.583 324.739 353.303 324.659C353.021 324.599 352.735 324.537 352.447 324.476C352.302 324.451 352.158 324.427 352.015 324.403C351.87 324.379 351.73 324.347 351.586 324.334C351.443 324.319 351.301 324.298 351.162 324.278C351.021 324.255 350.884 324.253 350.745 324.236C350.471 324.204 350.205 324.193 349.949 324.176C349.821 324.164 349.699 324.17 349.58 324.164C349.457 324.16 349.341 324.152 349.228 324.155C349.004 324.153 348.794 324.152 348.611 324.158C348.422 324.159 348.261 324.17 348.123 324.174C347.991 324.185 347.88 324.184 347.808 324.195C347.732 324.2 347.693 324.203 347.693 324.203Z" fill="black"/>
<path d="M376.802 330.079C376.802 330.079 376.732 329.936 376.565 329.711C376.477 329.604 376.377 329.464 376.244 329.326C376.111 329.183 375.95 329.032 375.77 328.873C375.589 328.718 375.381 328.561 375.151 328.407C374.917 328.257 374.672 328.098 374.399 327.969C374.133 327.824 373.841 327.708 373.544 327.595C373.248 327.475 372.931 327.405 372.622 327.311C372.305 327.246 371.988 327.184 371.673 327.14C371.357 327.108 371.044 327.086 370.744 327.073C370.444 327.078 370.154 327.089 369.878 327.105C369.605 327.124 369.35 327.175 369.114 327.212C368.879 327.255 368.664 327.292 368.479 327.353C368.292 327.408 368.131 327.463 368.001 327.507C367.736 327.596 367.591 327.658 367.591 327.658C367.591 327.658 367.752 327.69 368.025 327.72C368.162 327.738 368.327 327.757 368.515 327.772C368.701 327.781 368.91 327.814 369.139 327.842C369.365 327.873 369.609 327.884 369.866 327.923C370.121 327.962 370.386 328.001 370.663 328.033C370.937 328.083 371.219 328.138 371.506 328.18C371.788 328.24 372.072 328.303 372.36 328.366C372.502 328.403 372.642 328.44 372.784 328.477C372.923 328.515 373.066 328.543 373.203 328.592C373.339 328.637 373.476 328.677 373.612 328.714C373.75 328.752 373.878 328.807 374.008 328.85C374.272 328.933 374.518 329.033 374.759 329.124C374.88 329.163 374.988 329.221 375.101 329.265C375.214 329.31 375.325 329.352 375.425 329.401C375.629 329.492 375.821 329.576 375.987 329.658C376.157 329.737 376.3 329.814 376.421 329.874C376.538 329.94 376.64 329.986 376.702 330.022C376.768 330.058 376.802 330.079 376.802 330.079Z" fill="black"/>
<path d="M384.286 336.94C384.286 336.94 385.66 334.543 386.994 331.253C385.591 334.581 384.286 336.94 384.286 336.94Z" fill="#CF9166"/>
<path d="M386.124 313.428C384.769 313.563 383.359 313.532 382.003 313.56C378.749 313.632 375.492 313.536 372.236 313.596C370.299 313.632 368.365 313.717 366.434 313.868C366.269 313.88 361.787 314.339 361.926 314.281C358.586 314.737 355.259 315.319 351.931 315.829C350.641 316.027 349.373 316.135 348.119 316.193C351.885 316.99 356.763 316.758 360.165 316.427C359.982 316.483 359.82 316.527 359.622 316.595C356.107 317.789 359.011 321.7 365.179 324.33C373.714 327.968 381.448 326.526 381.448 326.526C381.448 326.526 380.069 329.03 379.769 333.441C379.565 336.46 380.313 340.157 380.803 342.19C381.031 343.125 381.203 343.709 381.203 343.709L380.08 345.727C380.08 345.727 382.562 341.532 386.988 336.073C396.211 324.698 395.24 318.097 393.459 314.887C390.959 314.757 388.475 314.285 386.124 313.428Z" fill="#361710"/>
<path d="M385.524 327.9C385.524 327.9 367.172 328.691 336.538 316.508C321.879 310.68 345.858 310.265 345.858 310.265L374.223 309.616L385.524 327.9Z" fill="#2D2C44"/>
<path d="M389.274 333.25C389.274 333.25 388.2 330.987 385.525 327.9C382.446 324.346 377.248 319.699 369.132 316.162C353.975 309.556 345.858 310.267 345.858 310.267C345.858 310.267 347.092 301.365 358.826 296.934C363.384 295.212 368.079 294.75 372.567 295.482C380.1 296.708 387.054 301.287 391.82 308.898C399.386 320.981 389.274 333.25 389.274 333.25Z" fill="#2D2C44"/>
<path d="M385.525 327.9C382.447 324.345 377.248 319.699 369.133 316.162C353.975 309.555 345.859 310.266 345.859 310.266C345.859 310.266 347.092 301.365 358.825 296.933C363.384 295.211 368.08 294.75 372.568 295.482C376.45 297.167 380.121 299.791 383.343 303.343C391.971 312.856 386.951 324.962 385.525 327.9Z" fill="#A7A6BB"/>
<path d="M382.84 340.894C382.84 340.894 370.268 345.85 365.124 349.636C363.772 350.632 363.047 354.007 358.634 354.007C353.168 354.007 354.029 351.397 350.447 348.924C348.443 347.54 344.192 346.137 342.988 344.4C340.336 340.581 340.356 328.298 340.356 328.298C340.356 328.298 336.712 337.822 339.488 346.861C340.681 350.744 342.195 360.843 355.678 361.342C368.43 361.813 370.419 357.888 372.907 355.324C375.395 352.763 382.84 340.894 382.84 340.894Z" fill="#361710"/>
<path d="M296.438 332.178L301.516 334.703C306.909 337.385 309.106 343.932 306.425 349.325L303.835 354.533C301.153 359.926 294.607 362.125 289.213 359.443L284.136 356.916C278.742 354.235 276.545 347.689 279.226 342.295L281.816 337.087C284.498 331.694 291.045 329.497 296.438 332.178Z" fill="#FCC822"/>
<path d="M308.931 365.741L307.168 361.861C306.728 360.56 306.565 359.184 306.688 357.818L307.472 349.091C307.575 347.952 307.222 346.816 306.489 345.938L299.461 337.492C299.013 336.953 298.166 337.019 297.806 337.62C297.593 337.978 297.617 338.429 297.87 338.76L301.128 343.032L298.108 340.632C297.522 340.168 296.653 340.413 296.398 341.115C296.246 341.534 296.364 342.003 296.694 342.301L301.412 346.559L296.958 343.668C296.344 343.268 295.517 343.545 295.268 344.234C295.08 344.751 295.289 345.328 295.765 345.607L299.856 347.991L295.494 346.534C294.968 346.359 294.397 346.634 294.208 347.156C294.034 347.635 294.239 348.169 294.688 348.409L297.198 349.746C298.863 350.636 299.761 352.503 299.412 354.359L298.596 358.714C298.134 361.183 298.63 363.736 299.985 365.851L302.197 369.306L308.931 365.741Z" fill="#EDAC7C"/>
<path d="M364.163 372.368L333.99 388.524C331.988 389.597 329.497 388.949 328.27 387.038L310.631 359.847L297.501 367L322.907 408.551C324.737 411.265 328.313 412.173 331.217 410.662L372.919 388.95C377.05 386.8 378.976 381.942 377.441 377.545C375.544 372.108 369.239 369.65 364.163 372.368Z" fill="#A7A6BB"/>
<path d="M346.353 426.144C346.353 442.581 333.029 455.909 316.587 455.909L287.806 453.34L267.246 451.503V446.705C267.246 435.349 276.451 426.144 287.806 426.144H346.353Z" fill="#2D2C44"/>
<path d="M287.216 426.145V506.012L269.178 502.28L266.877 446.706C266.877 435.35 275.593 426.145 287.216 426.145Z" fill="#2D2C44"/>
<path d="M256.411 491.683C248.044 491.876 241.321 498.714 241.321 507.127C241.321 507.912 241.958 508.549 242.743 508.549H256.411V491.683Z" fill="white"/>
<path d="M267.375 477.52V490.252C267.375 491.036 266.739 491.673 265.954 491.673H256.773C256.301 491.673 255.835 491.695 255.373 491.737V504.13H287.954V477.52H267.375Z" fill="#361710"/>
<path d="M281.842 487.365C281.842 489.749 279.909 491.683 277.525 491.683C275.14 491.683 273.206 489.749 273.206 487.365C273.206 484.98 275.14 483.046 277.525 483.046C279.909 483.046 281.842 484.98 281.842 487.365Z" fill="white"/>
<path d="M242.229 501.901C241.643 503.533 241.32 505.291 241.32 507.126C241.32 507.911 241.957 508.547 242.743 508.547H286.532C287.317 508.547 287.954 507.911 287.954 507.126V501.901H242.229Z" fill="white"/>
<path d="M375.349 194.724C388.541 201.284 396.172 210.981 398.238 223.809C399.906 233.952 398.238 244.056 393.231 254.125C384.856 270.964 369.266 283.187 346.46 290.793C338.508 293.443 332.611 298.198 328.767 305.055C327.427 307.312 326.044 309.871 324.62 312.738C321.938 318.13 315.392 320.329 309.998 317.646L304.919 315.121C299.527 312.44 297.329 305.892 300.01 300.5C307.651 285.135 317.103 275.6 328.369 271.889C340.541 267.873 350.261 262.368 357.531 255.372C361.727 251.287 365.186 246.512 367.906 241.043C370.711 235.401 371.653 230.348 370.734 225.884C369.809 220.771 366.53 217.245 360.891 215.305C355.641 213.453 350.376 215.111 345.099 220.282C344.836 220.53 344.575 220.786 344.316 221.05C340.522 224.902 334.462 225.363 330.111 222.153L325.846 219.008C320.566 215.113 319.881 207.452 324.407 202.702C328.903 197.982 334.067 194.373 339.9 191.874C346.222 189.173 353.462 188.549 361.617 190.006C365.909 190.734 370.486 192.305 375.349 194.724Z" fill="#FCC822"/>
<path d="M354.218 350.141C354.573 350.141 354.88 349.899 354.97 349.555C355.324 348.182 356.562 347.165 358.047 347.165C359.532 347.165 360.769 348.182 361.124 349.555C361.213 349.899 361.52 350.141 361.876 350.141C362.375 350.141 362.769 349.674 362.647 349.19C362.127 347.127 360.272 345.598 358.047 345.598C355.822 345.598 353.966 347.127 353.447 349.19C353.325 349.674 353.718 350.141 354.218 350.141Z" fill="#F05B4E"/>
<path d="M368.035 348.766C367.31 345.321 364.87 342.474 361.601 341.229C360.986 340.995 360.288 341.105 359.801 341.545C359.259 342.032 358.67 342.554 358.047 342.554C357.392 342.554 356.774 342.005 356.211 341.496C355.731 341.062 355.049 340.941 354.438 341.161C351.492 342.218 349.146 344.582 348.131 347.596C347.816 348.529 348.273 349.609 349.217 349.893C350.14 350.169 351.052 349.651 351.33 348.786C352.274 345.842 355.094 343.786 358.323 343.973C361.553 344.16 364.117 346.526 364.716 349.558C364.867 350.319 365.505 350.882 366.278 350.927H366.279C367.414 350.927 368.269 349.878 368.035 348.766Z" fill="#361710"/>
<path d="M302.258 426.272C302.258 426.272 323.831 426.848 333.226 434.819C342.619 442.789 344.754 442.931 344.754 442.931C344.754 442.931 346.117 426.892 351.201 416.479C356.285 406.066 349.878 408.916 348.597 410.481C347.316 412.046 331.233 425.556 331.233 425.556L328.051 426.146L302.258 426.272Z" fill="#727293"/>
<path d="M430.182 268.507C430.182 268.507 428.761 273.958 431.1 275.202C433.442 276.447 439.425 277.099 439.485 275.202C439.543 273.306 441.203 271.47 438.241 270.166C435.277 268.863 431.782 268.507 431.782 268.507H430.182Z" fill="#C9BDBD"/>
<path d="M487.454 204.6C487.393 204.611 487.332 204.624 487.271 204.638C486.789 204.742 486.505 204.839 486.505 204.839V204.861C486.391 204.903 486.275 204.94 486.163 204.989C479.934 207.774 479.934 213.474 479.934 213.474L483.778 224.874C483.778 224.874 484.853 224.926 486.462 224.778L486.35 276.409L486.908 276.729C491.081 279.124 496.209 279.134 500.39 276.753L500.998 276.409C500.998 276.409 501.744 255.667 502.021 227.477C502.257 203.481 490.854 203.934 487.454 204.6Z" fill="#161616"/>
<path d="M478.381 212.739L480.685 209.702C480.977 209.318 481.517 209.227 481.915 209.501C484.43 211.23 492.631 217.504 491.512 225.059L478.381 212.739Z" fill="white"/>
<path d="M468.714 260.879C468.719 260.849 471.068 260.585 471.21 260.56C473.264 260.182 475.281 259.564 477.195 258.728C483.111 256.141 487.66 251.369 489.91 245.304C491.525 240.948 491.979 236.236 491.803 231.619C491.546 224.847 489.982 217.447 484.019 213.308C478.94 209.785 476.452 210.855 476.452 210.855C476.452 210.855 468.716 260.862 468.714 260.879Z" fill="#161616"/>
<path d="M470.096 252.204L459.752 251.548C459.752 251.548 458.329 267.721 458.289 267.718C458.289 267.718 458.844 270.996 463.429 271.36C468.015 271.72 469.362 268.418 469.362 268.418C469.328 268.326 470.096 252.204 470.096 252.204Z" fill="#F8D0B7"/>
<path d="M463.8 264.735C460.405 264.467 459.174 263.278 458.763 262.679C459.191 257.933 459.752 251.548 459.752 251.548L470.096 252.205C470.096 252.205 469.803 258.381 469.586 263.111C469.305 263.48 467.857 265.054 463.8 264.735Z" fill="#EFBDAC"/>
<path d="M465.672 257.375L455.327 256.719C455.327 256.719 455.065 258.78 454.835 260.532C454.8 260.787 457.744 261.425 458.064 261.496C460.57 262.057 463.084 261.89 465.589 261.419C465.621 259.612 465.672 257.375 465.672 257.375Z" fill="#CF9166"/>
<path d="M442.833 227.76C443.123 225.681 443.343 223.919 445.016 221.954C449.104 217.153 455.629 214.412 461.893 214.422C471.316 214.438 481.087 218.05 483.606 227.907C484.469 231.283 484.489 234.823 484.155 238.292C483.63 243.762 482.165 249.291 478.865 253.686C474.909 258.952 468.373 262.179 461.787 262.118C451.731 262.024 443.683 256.621 440.978 247.848C439.03 241.534 440.849 236.587 442.352 230.447C442.589 229.478 442.717 228.594 442.833 227.76Z" fill="#F8D0B7"/>
<path d="M487.661 239.434C487.684 239.464 487.713 239.506 487.713 239.506C487.713 239.506 487.709 239.462 487.698 239.381C487.686 239.303 487.668 239.18 487.618 239.03C487.566 238.883 487.497 238.697 487.357 238.5C487.221 238.304 487.027 238.081 486.719 237.897C486.568 237.803 486.39 237.721 486.193 237.652C486.094 237.619 485.99 237.589 485.882 237.57L485.8 237.553L485.709 237.539L485.569 237.518C485.482 237.502 485.366 237.494 485.245 237.489C485.123 237.48 485.006 237.478 484.894 237.482C484.778 237.484 484.661 237.487 484.545 237.501C484.429 237.512 484.311 237.524 484.196 237.546C484.062 237.568 483.933 237.606 483.802 237.638C483.812 236.753 483.783 235.869 483.695 234.992C484.841 234.83 486.124 234.942 487.546 235.538C493.539 238.056 490.573 249.547 481.115 250.025C481.359 249.517 481.579 249.001 481.784 248.48C486.851 247.01 488.715 242.02 487.661 239.434Z" fill="#F8D0B7"/>
<path d="M484.722 238.273C484.808 238.254 484.892 238.244 484.977 238.234C485.063 238.219 485.144 238.212 485.219 238.208C485.292 238.203 485.37 238.197 485.472 238.202L485.615 238.203L485.651 238.204H485.668H485.677C485.669 238.203 485.701 238.206 485.66 238.202H485.663L485.719 238.206C485.795 238.21 485.865 238.221 485.936 238.229C486.078 238.252 486.215 238.286 486.34 238.333C486.847 238.526 487.19 238.864 487.399 239.103C487.502 239.225 487.583 239.323 487.634 239.397C487.651 239.421 487.65 239.418 487.661 239.434C488.715 242.019 486.851 247.01 481.784 248.478C482.751 246.018 483.321 243.415 483.605 240.824C483.687 240.081 483.746 239.336 483.779 238.587C484.007 238.491 484.235 238.388 484.468 238.329C484.552 238.304 484.637 238.289 484.722 238.273Z" fill="#FFB7A1"/>
<path d="M484.545 237.501C484.662 237.486 484.778 237.482 484.893 237.481C485.006 237.477 485.122 237.479 485.244 237.488C485.367 237.494 485.483 237.502 485.569 237.518L485.709 237.539L485.8 237.553L485.881 237.57C485.99 237.59 486.094 237.619 486.193 237.652C486.39 237.72 486.568 237.803 486.72 237.897C487.026 238.081 487.221 238.302 487.358 238.501C487.497 238.697 487.566 238.882 487.617 239.03C487.668 239.18 487.686 239.302 487.699 239.382C487.708 239.462 487.713 239.505 487.713 239.505C487.713 239.505 487.684 239.464 487.662 239.435C487.649 239.418 487.651 239.422 487.633 239.397C487.584 239.324 487.502 239.226 487.399 239.104C487.19 238.864 486.848 238.527 486.34 238.334C486.215 238.286 486.077 238.253 485.937 238.23C485.864 238.222 485.794 238.21 485.719 238.207L485.664 238.202H485.66C485.701 238.207 485.668 238.203 485.676 238.205H485.668H485.65L485.615 238.203L485.473 238.201C485.369 238.196 485.292 238.203 485.218 238.209C485.143 238.213 485.064 238.219 484.976 238.234C484.891 238.245 484.807 238.255 484.722 238.274C484.638 238.29 484.551 238.305 484.468 238.33C484.234 238.389 484.008 238.491 483.778 238.588C483.793 238.272 483.799 237.956 483.803 237.638C483.934 237.606 484.063 237.568 484.195 237.546C484.31 237.524 484.429 237.512 484.545 237.501Z" fill="#FFA792"/>
<path d="M457.374 237.923C457.374 237.923 457.637 242.445 455.54 241.96C451.479 241.028 451.005 249.81 457.366 246.867C459.767 245.756 459.398 238.091 459.398 238.091L457.374 237.923Z" fill="#F48470"/>
<path d="M450.365 249.92C450.245 251.804 448.596 253.233 446.679 253.111C444.763 252.989 443.305 251.364 443.422 249.48C443.543 247.596 445.194 246.168 447.11 246.289C449.027 246.411 450.485 248.036 450.365 249.92Z" fill="#FFB7A1"/>
<path d="M475.394 249.302C475.274 251.188 473.624 252.616 471.705 252.494C469.791 252.373 468.334 250.749 468.452 248.865C468.573 246.981 470.222 245.553 472.137 245.674C474.055 245.794 475.514 247.421 475.394 249.302Z" fill="#FFB7A1"/>
<path d="M444.192 235.173C444.192 235.173 444.289 235.045 444.503 234.859C444.608 234.767 444.74 234.649 444.903 234.541C445.062 234.425 445.251 234.307 445.465 234.189C445.678 234.07 445.918 233.954 446.175 233.849C446.436 233.748 446.714 233.639 447.013 233.566C447.307 233.477 447.619 233.422 447.938 233.37C448.258 233.312 448.588 233.306 448.915 233.276C449.242 233.278 449.571 233.28 449.892 233.3C450.213 233.333 450.527 233.374 450.826 233.422C451.126 233.488 451.413 233.561 451.681 233.631C451.953 233.707 452.196 233.811 452.421 233.896C452.646 233.986 452.852 234.064 453.025 234.166C453.199 234.258 453.349 234.345 453.471 234.415C453.711 234.556 453.844 234.649 453.844 234.649C453.844 234.649 453.677 234.647 453.399 234.622C453.261 234.61 453.093 234.596 452.902 234.573C452.716 234.544 452.5 234.534 452.267 234.516C452.037 234.501 451.791 234.46 451.53 234.448C451.267 234.434 450.995 234.419 450.714 234.394C450.43 234.386 450.142 234.384 449.846 234.368C449.554 234.372 449.258 234.374 448.96 234.379C448.81 234.386 448.661 234.395 448.515 234.403C448.366 234.412 448.219 234.411 448.075 234.43C447.929 234.447 447.785 234.459 447.642 234.471C447.497 234.478 447.361 234.509 447.22 234.524C446.942 234.553 446.676 234.601 446.419 234.64C446.29 234.657 446.169 234.692 446.049 234.711C445.928 234.734 445.811 234.753 445.7 234.783C445.478 234.83 445.271 234.876 445.09 234.923C444.903 234.966 444.746 235.014 444.61 235.049C444.483 235.09 444.372 235.113 444.304 235.14C444.23 235.162 444.192 235.173 444.192 235.173Z" fill="#161616"/>
<path d="M471.656 233.67C471.656 233.67 471.553 233.546 471.336 233.364C471.224 233.279 471.091 233.164 470.927 233.06C470.762 232.949 470.567 232.838 470.353 232.725C470.137 232.614 469.894 232.508 469.63 232.41C469.364 232.318 469.084 232.219 468.783 232.157C468.488 232.075 468.173 232.03 467.853 231.989C467.532 231.942 467.202 231.946 466.875 231.927C466.546 231.938 466.22 231.952 465.899 231.983C465.578 232.026 465.265 232.078 464.966 232.136C464.67 232.211 464.386 232.293 464.119 232.372C463.854 232.455 463.614 232.568 463.389 232.659C463.167 232.757 462.964 232.845 462.796 232.948C462.625 233.046 462.478 233.139 462.361 233.213C462.12 233.363 461.992 233.46 461.992 233.46C461.992 233.46 462.158 233.454 462.435 233.418C462.574 233.403 462.742 233.384 462.931 233.355C463.117 233.318 463.33 233.302 463.563 233.274C463.792 233.253 464.037 233.206 464.3 233.183C464.561 233.162 464.832 233.137 465.112 233.103C465.394 233.088 465.685 233.075 465.979 233.048C466.272 233.041 466.568 233.037 466.866 233.029C467.015 233.032 467.163 233.036 467.312 233.039C467.457 233.044 467.604 233.038 467.752 233.055C467.897 233.067 468.042 233.074 468.185 233.078C468.329 233.083 468.469 233.108 468.607 233.119C468.888 233.138 469.154 233.179 469.413 233.211C469.542 233.22 469.663 233.253 469.784 233.268C469.906 233.287 470.025 233.303 470.136 233.326C470.359 233.369 470.569 233.407 470.751 233.449C470.938 233.485 471.097 233.527 471.231 233.557C471.363 233.597 471.473 233.616 471.544 233.639C471.617 233.658 471.656 233.67 471.656 233.67Z" fill="#050607"/>
<path d="M465.077 238.104C464.727 239.396 465.495 240.705 466.789 241.029C468.082 241.353 469.413 240.568 469.76 239.275C470.11 237.984 469.344 236.672 468.05 236.349C466.756 236.026 465.425 236.812 465.077 238.104Z" fill="#050607"/>
<path d="M466.051 237.671C465.926 238.139 466.244 238.624 466.763 238.753C467.281 238.884 467.804 238.61 467.931 238.141C468.056 237.674 467.737 237.189 467.219 237.06C466.701 236.928 466.178 237.204 466.051 237.671Z" fill="white"/>
<path d="M451.327 237.541C451.676 238.833 450.909 240.144 449.616 240.467C448.321 240.791 446.991 240.007 446.643 238.713C446.294 237.421 447.06 236.111 448.355 235.787C449.648 235.465 450.979 236.25 451.327 237.541Z" fill="#050607"/>
<path d="M450.352 237.109C450.479 237.576 450.16 238.061 449.642 238.19C449.122 238.321 448.599 238.047 448.474 237.577C448.347 237.111 448.666 236.626 449.185 236.497C449.703 236.366 450.227 236.641 450.352 237.109Z" fill="white"/>
<path d="M473.751 227.033C473.751 227.033 481.864 251.862 474.441 259.286C474.441 259.286 485.223 253.377 486.204 226.28L473.751 227.033Z" fill="#161616"/>
<path d="M484.687 232.207C487.473 231.759 487.668 219.876 487.245 218.257C485.792 212.687 477.841 209.266 472.986 207.445C465.339 204.578 455.726 204.107 448.809 209.075C445.103 211.738 443.283 215.486 441.555 219.571C441.236 220.324 437.782 229.821 437.761 229.821C437.762 229.821 464.093 231.161 463.886 231.15L466.374 231.276C466.374 231.276 482.728 232.521 484.687 232.207" fill="#161616"/>
<path d="M505.377 306.08H505.206C503.194 306.09 501.235 306.797 499.498 307.834C501.343 310.251 503.415 312.477 506.08 314.025C506.256 314.127 506.425 314.216 506.59 314.299C506.933 313.903 507.255 313.489 507.539 313.047C509.389 310.185 509.651 306.146 505.377 306.08Z" fill="#E8B79E"/>
<path d="M447.02 379.39C447.02 379.39 448.34 419.912 448.427 423.685C448.515 427.457 453.761 461.228 454.395 469.503C455.031 477.779 452.759 494.78 450.917 501.559L448.682 507.309C448.682 507.309 455.852 510.178 458.639 508.929C463.023 506.962 463.903 499.995 465.008 495.896C466.178 491.55 467.045 487.048 466.86 482.526C466.68 478.179 464.291 474.878 463.382 470.733C460.902 459.445 465.124 447.767 465.726 436.474C466.264 426.398 464.91 416.346 463.402 406.407C461.995 397.138 466.286 388.928 465.843 379.76C465.843 379.76 448.745 367.581 446.827 377.47" fill="#EFC8B1"/>
<path d="M450.127 503.588C450.016 504.087 451.48 504.616 451.811 504.765C454.227 505.859 458.057 506.915 460.046 504.463C462.475 501.479 463.032 496.302 464.062 492.698C465.226 488.619 466.438 483.928 466.077 479.644L465.907 477.625C465.907 477.625 471.588 481.096 471.231 485.915C470.873 490.734 466.027 498.815 465.724 503.855C465.537 506.961 464.026 510.05 461.489 511.895C457.611 514.715 450.914 514.514 446.768 512.388C445.235 511.602 444.026 507.947 446.035 507.024C448.538 505.873 452.589 494.104 452.166 493.708L450.917 501.558C450.917 501.558 450.127 503.584 450.127 503.588Z" fill="#122738"/>
<path d="M470.962 487.106C470.962 487.106 469.352 497.48 470.127 503.284L468.438 503.842L466.753 496.059L470.962 487.106Z" fill="#312E2F"/>
<path d="M485.471 487.106C485.471 487.106 484.11 502.636 484.887 508.442L482.417 508.511L481.261 496.059L485.471 487.106Z" fill="#0C1B26"/>
<path d="M459.87 379.39C459.87 379.39 462.848 419.912 462.935 423.685C463.023 427.457 468.268 461.228 468.903 469.503C469.539 477.779 467.267 494.78 465.425 501.559L463.19 507.309C463.19 507.309 470.361 510.178 473.147 508.929C477.532 506.962 478.412 499.995 479.516 495.896C480.686 491.55 481.553 487.048 481.368 482.526C481.189 478.179 478.8 474.878 477.889 470.733C475.41 459.445 479.632 447.767 480.235 436.474C480.772 426.398 479.418 416.346 477.911 406.407C476.503 397.138 480.794 388.928 480.351 379.76C480.351 379.76 461.596 367.581 459.677 377.47" fill="#F8D0B7"/>
<path d="M464.635 503.588C464.524 504.087 465.988 504.616 466.32 504.765C468.735 505.859 472.565 506.915 474.554 504.463C476.984 501.479 477.541 496.302 478.569 492.698C479.735 488.619 480.946 483.928 480.586 479.644L480.415 477.625C480.415 477.625 486.096 481.096 485.739 485.915C485.381 490.734 480.535 498.815 480.232 503.855C480.046 506.961 478.536 510.05 475.997 511.895C472.12 514.715 465.423 514.514 461.277 512.388C459.744 511.602 458.535 507.947 460.543 507.024C463.047 505.873 467.097 494.104 466.675 493.708L465.425 501.558C465.425 501.558 464.636 503.584 464.635 503.588Z" fill="#122738"/>
<path d="M478.825 292.325C480.236 285.664 485.168 278.854 485.469 277.358C477.694 269.591 470.756 266.833 469.123 266.324L459.455 266.367C456.869 267.418 454.262 268.418 451.668 269.447C450.692 269.833 449.781 270.037 449.166 270.886C448.413 271.925 448.03 273.705 447.533 274.91C446.175 278.202 444.778 281.545 444.108 285.073C443.675 287.351 444.214 289.806 445.137 292.325H478.825Z" fill="#F8D0B7"/>
<path d="M488.508 343.217C485.438 334.434 481.297 325.953 479.749 316.716C474.369 318.997 453.909 318.3 449.921 314.773C449.048 326.25 443.162 337.222 440.366 348.397C438.619 355.381 437.161 362.482 436.899 369.694C436.627 377.24 439.346 400.142 439.899 408.571C462.058 422.909 487.241 409.157 488.245 406.557C493.51 392.924 493.254 372.532 491.951 357.845C491.502 352.771 490.161 347.95 488.508 343.217Z" fill="#122738"/>
<path d="M440.366 348.397C440.25 348.858 440.14 349.324 440.027 349.787C447.902 354.001 478.593 356.537 490.187 348.528C489.69 346.741 489.121 344.972 488.507 343.216C485.559 334.78 481.628 326.618 479.95 317.801L475.257 317.694C470.408 318.255 463.421 318.118 457.906 317.301L451.465 317.155C451.465 317.155 449.144 334.742 441.671 343.816C441.193 345.341 440.748 346.867 440.366 348.397Z" fill="#0B1C28"/>
<path d="M458.746 283.112C458.726 282.78 458.686 282.458 458.642 282.134C458.634 282.08 458.626 282.028 458.617 281.973C458.05 278.177 455.878 275.001 453.087 272.883C449.581 270.347 445.847 268.162 442.172 265.89C434.794 261.412 428.466 257.807 421.001 253.47C418.687 249.2 416.338 244.956 413.892 240.78C412.656 238.693 411.421 236.607 410.033 234.627C408.469 232.802 407.328 230.69 406.212 228.515C403.959 224.208 402.017 219.616 398.915 215.899C397.221 213.951 395.377 212.176 393.448 210.504C393.622 210.805 399.462 220.991 398.864 231.197C398.864 231.197 398.852 231.2 398.844 231.203C399.544 231.615 400.24 232.049 400.941 232.46L401.698 232.919L402.076 233.148C402.216 233.22 402.336 233.307 402.332 233.384C402.528 233.792 402.723 234.483 402.896 235.055C403.591 237.471 404.309 239.895 405.159 242.251C406.85 246.954 408.97 251.486 411.906 255.357C413.374 257.278 415.023 259.08 416.905 260.548C418.753 262.043 420.63 263.501 422.52 264.94C426.305 267.813 429.051 269.81 433.011 272.434C436.975 275.05 441.022 277.548 445.245 279.75C449.511 281.869 453.872 283.864 458.769 284.608C458.773 284.523 458.762 284.441 458.764 284.356C458.778 284.119 458.786 283.689 458.746 283.112Z" fill="#EFC8B1"/>
<path d="M396.119 215.934C395.987 217.404 395.168 221.156 394.613 222.491C393.558 222.332 392.524 221.897 391.608 221.345C390.591 220.767 389.809 219.912 388.829 219.158C388.335 218.8 387.802 218.483 387.197 218.276C386.589 218.114 385.901 217.918 385.097 218.43C385.004 218.503 384.872 218.612 384.812 218.82C384.734 219.039 384.795 219.104 384.795 219.248C384.848 219.444 384.922 219.606 385.001 219.75C385.164 220.035 385.342 220.293 385.532 220.534C385.909 221.021 386.314 221.469 386.728 221.907C388.349 223.674 390.178 225.23 391.857 226.889L393.096 228.184C393.543 228.627 394.066 228.967 394.607 229.251C395.691 229.821 396.853 230.169 397.905 230.667C398.281 230.859 398.649 231.082 399.018 231.303V220.055C397.584 219.629 397.383 216.663 396.119 215.934Z" fill="#EFC8B1"/>
<path d="M433.048 260.462C433.048 260.462 435.012 263.65 434.39 270.047C433.768 276.446 431.101 275.202 431.101 275.202C431.101 275.202 437.767 280.267 444.431 283.822C451.097 287.378 450.83 270.403 450.83 270.403C450.83 270.403 433.751 258.342 433.048 260.462Z" fill="white"/>
<path d="M449.79 316.7C449.766 317.155 449.564 317.73 449.885 317.951C460.125 324.992 479.98 317.647 479.838 316.775C479.149 312.574 479.038 308.235 479.845 304.042C481.661 294.599 488.63 285.448 485.58 275.51C485.569 275.476 485.559 275.44 485.546 275.406C484.52 272.344 474.406 268.795 473.525 268.225C473.822 269.002 473.005 269.899 472.725 270.25C471.347 271.964 469.178 273.035 467.108 273.644C464.704 274.351 462.182 274.636 459.68 274.54C458.278 274.484 456.869 274.305 455.493 274.024C454.649 273.852 453.606 273.583 453.043 272.888C452.008 271.613 452.987 269.758 453.626 268.523C453.626 268.523 452.402 268.982 450.832 269.012C448.883 269.048 442.922 265.095 442.922 265.095C441.825 268.474 443.504 281.919 442.198 285.194C441.376 287.254 440.945 289.523 441.347 291.705C441.998 295.232 444.637 297.914 445.768 301.255C447.203 305.497 450.034 312.081 449.79 316.7Z" fill="white"/>
<path d="M449.41 312.653C449.41 312.653 446.537 334.451 436.881 342.034C429.65 347.711 474.923 354.159 488.707 343.611C489.293 343.161 489.38 342.305 488.901 341.742C488.141 340.847 486.97 338.992 485.469 335.144C482.676 327.992 479.414 313.332 479.414 313.332L449.41 312.653Z" fill="white"/>
<path d="M510.137 314.091C509.402 315.013 508.131 315.217 506.081 314.025C503.309 312.413 501.174 310.073 499.274 307.544C496.851 304.319 493.968 301.459 491.211 298.505C487.488 294.515 483.583 290.597 480.166 286.339C477.374 282.864 475.149 280.223 476.453 275.371C476.651 274.632 476.939 273.896 477.445 273.315C478.214 272.433 479.433 272.205 480.546 272.337C483.319 272.67 485.174 274.622 486.914 276.565C488.727 278.589 490.741 280.452 492.641 282.397C496.696 286.555 500.66 290.837 504.003 295.592C506.183 298.694 508.506 301.76 510.017 305.266C511.552 308.829 511.636 312.214 510.137 314.091Z" fill="#EFC8B1"/>
<path d="M505.377 306.08H505.206C503.194 306.09 501.235 306.797 499.498 307.834C501.343 310.251 503.415 312.477 506.08 314.025C506.256 314.127 506.425 314.216 506.59 314.299C506.933 313.903 507.255 313.489 507.539 313.047C509.389 310.185 509.651 306.146 505.377 306.08Z" fill="#E8B79E"/>
<path d="M507.287 306.979C507.23 306.988 507.173 306.996 507.116 307.004C504.878 307.342 502.832 308.543 501.145 310.06C497.558 313.285 494.606 317.521 491.394 321.135C488.892 323.948 486.389 327.066 483.623 329.796C483.796 329.981 483.944 330.188 484.053 330.429C485.133 332.82 485.536 334.304 487.024 336.467C489.718 331.629 500.991 324.623 507.26 317.936C508.498 316.614 509.685 315.207 510.437 313.559C511.851 310.46 511.525 306.424 507.287 306.979Z" fill="#EFC8B1"/>
<path d="M483.465 333.702C483.461 333.709 480.414 337.228 479.827 337.169C479.24 337.11 478.466 336.356 478.466 336.356L482.461 331.155C482.461 331.155 478.247 335.147 477.223 335.213C476.198 335.281 475.433 334.443 475.433 334.443L480.83 328.788C480.83 328.788 477.273 333.014 476.047 333.4C474.821 333.788 473.88 333.015 473.88 333.015L479.092 326.665L478.907 327.664C478.907 327.664 476.339 329.613 475.339 329.429C474.34 329.244 473.55 328.657 473.55 328.657C473.55 328.657 476.287 326.724 477.698 325.338C479.107 323.952 480.526 324.178 480.526 324.178C483.051 326.266 484.618 329.452 486.229 332.287C487.474 334.479 487.508 338.678 487.508 338.678C487.508 338.678 486.724 340.095 483.465 333.702Z" fill="#F8D0B7"/>
<path d="M445.206 226.782C445.206 226.782 440.727 235.401 440.978 247.848C440.978 247.848 432.596 236.882 443.535 221.214L445.206 226.782Z" fill="#161616"/>
<path d="M489.17 298.901C489.17 298.901 499.143 297.48 501.162 290.014C501.162 290.014 486.724 273.438 480.494 271.387C474.263 269.337 471.537 276.506 474.5 281.542C477.462 286.578 489.17 298.901 489.17 298.901Z" fill="white"/>
<path d="M442.325 284.807C442.325 284.807 442.757 282.642 444.489 280.243C446.222 277.843 442.746 279.324 439.383 280.881C439.383 280.881 442.348 282.534 442.343 283.601C442.341 284.201 442.325 284.807 442.325 284.807Z" fill="#E1E4E5"/>
<path d="M457.881 253.022C458.237 253.022 458.543 252.78 458.633 252.436C458.988 251.062 460.224 250.046 461.71 250.046C463.195 250.046 464.433 251.062 464.787 252.436C464.876 252.78 465.184 253.022 465.539 253.022C466.038 253.022 466.432 252.556 466.31 252.071C465.79 250.008 463.935 248.479 461.71 248.479C459.485 248.479 457.63 250.008 457.11 252.071C456.988 252.556 457.381 253.022 457.881 253.022Z" fill="#F05B4E"/>
<defs>
<filter id="filter0_d_43_385" x="264.22" y="165.38" width="59.4628" height="59.4628" filterUnits="userSpaceOnUse" color-interpolation-filters="sRGB">
<feFlood flood-opacity="0" result="BackgroundImageFix"/>
<feColorMatrix in="SourceAlpha" type="matrix" values="0 0 0 0 0 0 0 0 0 0 0 0 0 0 0 0 0 0 127 0" result="hardAlpha"/>
<feMorphology radius="10.3651" operator="erode" in="SourceAlpha" result="effect1_dropShadow_43_385"/>
<feOffset dy="15.5476"/>
<feGaussianBlur stdDeviation="17.2751"/>
<feColorMatrix type="matrix" values="0 0 0 0 0.243137 0 0 0 0 0.741176 0 0 0 0 1 0 0 0 0.45 0"/>
<feBlend mode="normal" in2="BackgroundImageFix" result="effect1_dropShadow_43_385"/>
<feBlend mode="normal" in="SourceGraphic" in2="effect1_dropShadow_43_385" result="shape"/>
</filter>
<filter id="filter1_d_43_385" x="564.457" y="308.103" width="59.4628" height="59.4628" filterUnits="userSpaceOnUse" color-interpolation-filters="sRGB">
<feFlood flood-opacity="0" result="BackgroundImageFix"/>
<feColorMatrix in="SourceAlpha" type="matrix" values="0 0 0 0 0 0 0 0 0 0 0 0 0 0 0 0 0 0 127 0" result="hardAlpha"/>
<feMorphology radius="10.3651" operator="erode" in="SourceAlpha" result="effect1_dropShadow_43_385"/>
<feOffset dy="15.5476"/>
<feGaussianBlur stdDeviation="17.2751"/>
<feColorMatrix type="matrix" values="0 0 0 0 0.243137 0 0 0 0 0.741176 0 0 0 0 1 0 0 0 0.45 0"/>
<feBlend mode="normal" in2="BackgroundImageFix" result="effect1_dropShadow_43_385"/>
<feBlend mode="normal" in="SourceGraphic" in2="effect1_dropShadow_43_385" result="shape"/>
</filter>
<filter id="filter2_d_43_385" x="446.137" y="420.508" width="59.4628" height="59.4628" filterUnits="userSpaceOnUse" color-interpolation-filters="sRGB">
<feFlood flood-opacity="0" result="BackgroundImageFix"/>
<feColorMatrix in="SourceAlpha" type="matrix" values="0 0 0 0 0 0 0 0 0 0 0 0 0 0 0 0 0 0 127 0" result="hardAlpha"/>
<feMorphology radius="10.3651" operator="erode" in="SourceAlpha" result="effect1_dropShadow_43_385"/>
<feOffset dy="15.5476"/>
<feGaussianBlur stdDeviation="17.2751"/>
<feColorMatrix type="matrix" values="0 0 0 0 0.243137 0 0 0 0 0.741176 0 0 0 0 1 0 0 0 0.45 0"/>
<feBlend mode="normal" in2="BackgroundImageFix" result="effect1_dropShadow_43_385"/>
<feBlend mode="normal" in="SourceGraphic" in2="effect1_dropShadow_43_385" result="shape"/>
</filter>
<filter id="filter3_d_43_385" x="235.379" y="411.633" width="71.2948" height="71.2948" filterUnits="userSpaceOnUse" color-interpolation-filters="sRGB">
<feFlood flood-opacity="0" result="BackgroundImageFix"/>
<feColorMatrix in="SourceAlpha" type="matrix" values="0 0 0 0 0 0 0 0 0 0 0 0 0 0 0 0 0 0 127 0" result="hardAlpha"/>
<feMorphology radius="10.3651" operator="erode" in="SourceAlpha" result="effect1_dropShadow_43_385"/>
<feOffset dy="15.5476"/>
<feGaussianBlur stdDeviation="17.2751"/>
<feColorMatrix type="matrix" values="0 0 0 0 0.243137 0 0 0 0 0.741176 0 0 0 0 1 0 0 0 0.45 0"/>
<feBlend mode="normal" in2="BackgroundImageFix" result="effect1_dropShadow_43_385"/>
<feBlend mode="normal" in="SourceGraphic" in2="effect1_dropShadow_43_385" result="shape"/>
</filter>
<filter id="filter4_d_43_385" x="439.482" y="377.617" width="61.6813" height="61.6814" filterUnits="userSpaceOnUse" color-interpolation-filters="sRGB">
<feFlood flood-opacity="0" result="BackgroundImageFix"/>
<feColorMatrix in="SourceAlpha" type="matrix" values="0 0 0 0 0 0 0 0 0 0 0 0 0 0 0 0 0 0 127 0" result="hardAlpha"/>
<feMorphology radius="10.3651" operator="erode" in="SourceAlpha" result="effect1_dropShadow_43_385"/>
<feOffset dy="15.5476"/>
<feGaussianBlur stdDeviation="17.2751"/>
<feColorMatrix type="matrix" values="0 0 0 0 0.243137 0 0 0 0 0.741176 0 0 0 0 1 0 0 0 0.45 0"/>
<feBlend mode="normal" in2="BackgroundImageFix" result="effect1_dropShadow_43_385"/>
<feBlend mode="normal" in="SourceGraphic" in2="effect1_dropShadow_43_385" result="shape"/>
</filter>
<filter id="filter5_d_43_385" x="83.0426" y="376.876" width="61.6813" height="61.6814" filterUnits="userSpaceOnUse" color-interpolation-filters="sRGB">
<feFlood flood-opacity="0" result="BackgroundImageFix"/>
<feColorMatrix in="SourceAlpha" type="matrix" values="0 0 0 0 0 0 0 0 0 0 0 0 0 0 0 0 0 0 127 0" result="hardAlpha"/>
<feMorphology radius="10.3651" operator="erode" in="SourceAlpha" result="effect1_dropShadow_43_385"/>
<feOffset dy="15.5476"/>
<feGaussianBlur stdDeviation="17.2751"/>
<feColorMatrix type="matrix" values="0 0 0 0 0.243137 0 0 0 0 0.741176 0 0 0 0 1 0 0 0 0.45 0"/>
<feBlend mode="normal" in2="BackgroundImageFix" result="effect1_dropShadow_43_385"/>
<feBlend mode="normal" in="SourceGraphic" in2="effect1_dropShadow_43_385" result="shape"/>
</filter>
<filter id="filter6_d_43_385" x="369.229" y="437.516" width="55.0258" height="55.0258" filterUnits="userSpaceOnUse" color-interpolation-filters="sRGB">
<feFlood flood-opacity="0" result="BackgroundImageFix"/>
<feColorMatrix in="SourceAlpha" type="matrix" values="0 0 0 0 0 0 0 0 0 0 0 0 0 0 0 0 0 0 127 0" result="hardAlpha"/>
<feMorphology radius="10.3651" operator="erode" in="SourceAlpha" result="effect1_dropShadow_43_385"/>
<feOffset dy="15.5476"/>
<feGaussianBlur stdDeviation="17.2751"/>
<feColorMatrix type="matrix" values="0 0 0 0 0.243137 0 0 0 0 0.741176 0 0 0 0 1 0 0 0 0.45 0"/>
<feBlend mode="normal" in2="BackgroundImageFix" result="effect1_dropShadow_43_385"/>
<feBlend mode="normal" in="SourceGraphic" in2="effect1_dropShadow_43_385" result="shape"/>
</filter>
<linearGradient id="paint0_linear_43_385" x1="288.405" y1="174.018" x2="300.43" y2="175.142" gradientUnits="userSpaceOnUse">
<stop stop-color="#FCC822"/>
<stop offset="1" stop-color="#FFDD72"/>
</linearGradient>
<linearGradient id="paint1_linear_43_385" x1="588.642" y1="316.74" x2="600.667" y2="317.865" gradientUnits="userSpaceOnUse">
<stop stop-color="#FCC822"/>
<stop offset="1" stop-color="#FFDD72"/>
</linearGradient>
<linearGradient id="paint2_linear_43_385" x1="470.322" y1="429.145" x2="482.347" y2="430.27" gradientUnits="userSpaceOnUse">
<stop stop-color="#FCC822"/>
<stop offset="1" stop-color="#FFDD72"/>
</linearGradient>
<linearGradient id="paint3_linear_43_385" x1="259.565" y1="420.27" x2="284.416" y2="422.594" gradientUnits="userSpaceOnUse">
<stop stop-color="#FCC822"/>
<stop offset="1" stop-color="#FFDD72"/>
</linearGradient>
<linearGradient id="paint4_linear_43_385" x1="463.667" y1="386.254" x2="478.096" y2="387.604" gradientUnits="userSpaceOnUse">
<stop stop-color="#FCC822"/>
<stop offset="1" stop-color="#FFDD72"/>
</linearGradient>
<linearGradient id="paint5_linear_43_385" x1="107.228" y1="385.514" x2="121.658" y2="386.863" gradientUnits="userSpaceOnUse">
<stop stop-color="#FCC822"/>
<stop offset="1" stop-color="#FFDD72"/>
</linearGradient>
<linearGradient id="paint6_linear_43_385" x1="393.414" y1="446.153" x2="400.629" y2="446.828" gradientUnits="userSpaceOnUse">
<stop stop-color="#FDC68A"/>
<stop offset="1" stop-color="#FCC822"/>
</linearGradient>
<linearGradient id="paint7_linear_43_385" x1="406.725" y1="271.631" x2="406.725" y2="280.505" gradientUnits="userSpaceOnUse">
<stop stop-color="#FCC822"/>
<stop offset="1" stop-color="#FFDD72"/>
</linearGradient>
<linearGradient id="paint8_linear_43_385" x1="428.91" y1="299.498" x2="428.91" y2="308.372" gradientUnits="userSpaceOnUse">
<stop stop-color="#FCC822"/>
<stop offset="1" stop-color="#FFDD72"/>
</linearGradient>
<linearGradient id="paint9_linear_43_385" x1="442.961" y1="301.717" x2="442.961" y2="306.154" gradientUnits="userSpaceOnUse">
<stop stop-color="#FCC822"/>
<stop offset="1" stop-color="#FFDD72"/>
</linearGradient>
<linearGradient id="paint10_linear_43_385" x1="438.845" y1="311.651" x2="438.845" y2="316.088" gradientUnits="userSpaceOnUse">
<stop stop-color="#FCC822"/>
<stop offset="1" stop-color="#FFDD72"/>
</linearGradient>
<linearGradient id="paint11_linear_43_385" x1="428.672" y1="315.767" x2="428.672" y2="320.204" gradientUnits="userSpaceOnUse">
<stop stop-color="#FCC822"/>
<stop offset="1" stop-color="#FFDD72"/>
</linearGradient>
<linearGradient id="paint12_linear_43_385" x1="418.736" y1="311.652" x2="418.736" y2="316.089" gradientUnits="userSpaceOnUse">
<stop stop-color="#FCC822"/>
<stop offset="1" stop-color="#FFDD72"/>
</linearGradient>
<linearGradient id="paint13_linear_43_385" x1="414.859" y1="301.717" x2="414.859" y2="306.154" gradientUnits="userSpaceOnUse">
<stop stop-color="#FCC822"/>
<stop offset="1" stop-color="#FFDD72"/>
</linearGradient>
<linearGradient id="paint14_linear_43_385" x1="418.975" y1="291.781" x2="418.975" y2="296.218" gradientUnits="userSpaceOnUse">
<stop stop-color="#FCC822"/>
<stop offset="1" stop-color="#FFDD72"/>
</linearGradient>
<linearGradient id="paint15_linear_43_385" x1="428.672" y1="287.666" x2="428.672" y2="292.103" gradientUnits="userSpaceOnUse">
<stop stop-color="#FCC822"/>
<stop offset="1" stop-color="#FFDD72"/>
</linearGradient>
<linearGradient id="paint16_linear_43_385" x1="438.607" y1="291.781" x2="438.607" y2="296.218" gradientUnits="userSpaceOnUse">
<stop stop-color="#FCC822"/>
<stop offset="1" stop-color="#FFDD72"/>
</linearGradient>
</defs>
</svg>
